<?xml version="1.0" encoding="utf-8"?>
<!-- Generator: Adobe Illustrator 16.0.0, SVG Export Plug-In . SVG Version: 6.00 Build 0)  -->
<!DOCTYPE svg PUBLIC "-//W3C//DTD SVG 1.1//EN" "http://www.w3.org/Graphics/SVG/1.1/DTD/svg11.dtd">
<svg version="1.1" id="Layer_1" xmlns="http://www.w3.org/2000/svg" xmlns:xlink="http://www.w3.org/1999/xlink" x="0px" y="0px"
	 width="70px" height="70px" viewBox="0 0 400 400" enable-background="new 0 0 200 200" xml:space="preserve">
<g>
	<path fill="#EABA4C" d="M30.126,55.028v289.943h109.168V153.632h78.063c0,0,17.021-4.695,28.76,20.542
		c11.738,25.238-6.457,52.824-26.412,53.411l-37.564-34.042v150.254h160.232l-35.215-33.455c0,0,58.693-31.498,62.605-115.234
		c3.912-83.735-96.258-136.168-137.732-136.951C190.554,57.376,30.126,55.028,30.126,55.028z"/>
	<polygon fill="#F5DA95" points="30.126,55.028 30.126,344.972 139.294,344.972 139.294,153.632 	"/>
	<polygon fill="#E28753" points="182.14,193.544 182.14,343.798 342.372,343.798 	"/>
	<polygon fill="#D35405" points="182.14,193.544 182.14,343.798 260.202,267.105 	"/>
</g>
</svg>
