<?xml version="1.0" encoding="utf-8"?>
<!-- Generator: Adobe Illustrator 16.0.0, SVG Export Plug-In . SVG Version: 6.00 Build 0)  -->
<!DOCTYPE svg PUBLIC "-//W3C//DTD SVG 1.1//EN" "http://www.w3.org/Graphics/SVG/1.1/DTD/svg11.dtd">
<svg version="1.1" id="Layer_1" xmlns="http://www.w3.org/2000/svg" xmlns:xlink="http://www.w3.org/1999/xlink" x="0px" y="0px"
	 width="253.853px" height="260px" viewBox="0 0 253.853 260" enable-background="new 0 0 253.853 260" xml:space="preserve">
<g id="man_5_">
	<g>
		<g>
			<path fill="#798ED1" d="M199.283,195.529c-39.964,39.961-104.754,39.961-144.718,0c-39.959-39.961-39.959-104.754,0-144.715
				c39.964-39.965,104.754-39.965,144.718,0C239.247,90.775,239.247,155.568,199.283,195.529z"/>
		</g>
		<path fill="#C8C8C8" d="M90.308,163.516c0.07,3.629,0.502,24.941,1.23,43.33c-0.461-0.137-0.912-0.246-1.348-0.338l0.134-0.221
			l-21.165-23.969L90.308,163.516z"/>
		<g id="man_6_">
			<g>
				<polygon fill="#F2AE75" points="140.948,122.801 137.45,121.188 137.45,110.07 115.006,110.07 115.006,121.188 111.494,122.705 
					112.427,154.234 115.006,154.234 115.006,159.066 137.45,159.066 137.45,154.234 140.013,154.234 				"/>
				<polygon fill="#DEB4A0" points="137.444,111.201 137.444,120.242 114.998,115.531 114.998,111.201 				"/>
			</g>
			<g>
				<path fill="#FFFFFF" d="M78.42,139.664c4.116-8.969,15.665-11.186,32.218-16.881c0.59-0.205,1.188-0.412,1.787-0.629
					c0.008,0.031,0.008,0.066,0.02,0.096c1.09,6.162,4.185,14.143,13.778,15.08c9.594-0.938,12.688-8.918,13.779-15.08
					c0.009-0.029,0.009-0.064,0.019-0.096c0.6,0.217,1.199,0.424,1.787,0.629c16.552,5.695,28.104,7.912,32.217,16.881
					c5.157,11.428-9.65,23.307-9.65,23.307s-1.34,71.809-3.574,71.809h-34.579H91.644c-2.235,0-3.571-71.809-3.571-71.809
					S73.265,151.092,78.42,139.664z"/>
				<g>
					<polygon fill="#F15D44" points="120.82,135.357 122.977,139.484 129.532,139.484 131.628,135.357 126.224,130.941 					"/>
					<path fill="#E6E7E8" d="M126.225,130.941l6.901,7.268l13.428-13.789c-0.021-0.012-8.99-3.959-8.99-3.959l-2.77,2.563
						L126.225,130.941z"/>
					<path fill="#E6E7E8" d="M126.224,130.941l-6.902,7.268l-13.426-13.789c0.02-0.012,8.989-3.959,8.989-3.959l2.771,2.563
						L126.224,130.941z"/>
					<polygon fill="#F15D44" points="122.977,140.469 120.309,226.402 126.224,232.938 132.14,226.402 129.532,140.469 					"/>
				</g>
			</g>
			<g>
				<g>
					<g>
						<path fill="#4F4C4D" d="M163.362,116.199l7.491-29.041c0.769-2.979-1.022-6.016-3.997-6.781l-2.805-0.725
							c-2.976-0.768-6.013,1.021-6.779,4.002l-7.494,29.041c-0.77,2.977,1.023,6.012,4.001,6.781l2.802,0.723
							C159.558,120.967,162.595,119.176,163.362,116.199z"/>
						<path fill="#C8C8C8" d="M149.847,112.428l7.353-28.504c0.808-3.127,3.995-5.006,7.123-4.201l2.265,0.584
							c1.317,0.342,2.396,1.119,3.162,2.123c-0.584-0.43-1.252-0.762-1.994-0.955l-2.266-0.584
							c-3.123-0.807-6.311,1.074-7.119,4.201l-7.354,28.502c-0.466,1.809-0.014,3.619,1.037,4.998
							C150.187,117.217,149.232,114.809,149.847,112.428z"/>
						<path fill="#383643" d="M165.057,86.045l0.376-1.451c0.154-0.598-0.211-1.213-0.809-1.367s-1.214,0.207-1.365,0.807
							l-0.375,1.449c-0.155,0.596,0.21,1.213,0.806,1.367C164.287,87.002,164.903,86.639,165.057,86.045z"/>
					</g>
					<path fill="#F2AE75" d="M151.084,103.711l8.597,11.709l13.137-4.922l-3.919-15.451c-1.146-3.053-6.884-4.424-10.513-3.066
						C154.758,93.34,149.94,100.658,151.084,103.711z"/>
				</g>
				<path fill="#FFFFFF" d="M187.004,176.773c1.915,0,3.82-0.65,5.366-1.932c2.765-2.289,3.777-6.078,2.518-9.438l-22.547-60.174
					l-15.764,5.906l13.997,37.357l-4.515-2.75l-8.76,17.182l25.328,12.619C183.979,176.367,185.495,176.773,187.004,176.773z"/>
			</g>
			<g>
				<g>
					<path fill="#F2AE75" d="M94.765,214.74l-14.643-11.166l-8.504,11.156l14.642,11.164c2.894,2.207,4.336,1.496,6.685-1.584
						C95.295,221.23,97.657,216.943,94.765,214.74z"/>
					<path fill="#F2AE75" d="M94.427,209.385c-5.108-3.895-11.25-3.252-11.561-3.162c-1.209,0.365-1.957,1.643-1.672,2.85
						c0.286,1.209,1.492,1.893,2.701,1.533c0.025-0.008,0.307-0.016,0.771,0.02c0.463,0.029,1.106,0.104,1.853,0.258
						c1.491,0.309,3.392,0.939,5.074,2.221c0.962,0.736,2.378,0.498,3.161-0.529C95.54,211.549,95.392,210.121,94.427,209.385z"/>
				</g>
				<path fill="#FFFFFF" d="M78.526,222.373l9.568-16.086l-21.163-23.969l22.34-19.859l-8.84-26.012l-33.033,41.125
					c-2.545,3.25-2.358,7.863,0.437,10.898L78.526,222.373z"/>
			</g>
			<g>
				<g>
					<path fill="#F2AE75" d="M152.148,79.273l1.104-9.844c0.451-12.908-11.521-23.797-24.42-24.25
						c-12.908-0.449-25.602,9.58-26.052,22.488l0.412,9.887c-0.729,0.146-1.388,0.457-1.95,0.904
						c-1.039,0.824-1.72,2.072-1.77,3.506l-0.17,4.859c-0.088,2.568,1.906,4.725,4.482,4.832
						c-0.426,12.189,13.814,24.256,22.566,24.561c8.749,0.305,23.799-10.734,24.227-22.928c2.563,0.074,4.712-1.936,4.801-4.508
						l0.17-4.857C155.626,81.729,154.171,79.846,152.148,79.273z"/>
					<path opacity="0.8" fill="#F6CCB8" d="M152.148,79.273l1.104-9.844c0.451-12.908-11.521-23.797-24.42-24.25
						c-0.005,0-1.162,33.182-1.162,33.182c-3.662,7.133-6.229,17.564-6.229,17.564l5.606,0.197l-0.699,20.094
						c8.758,0.303,23.802-10.74,24.229-22.928c2.563,0.074,4.712-1.936,4.801-4.508l0.17-4.857
						C155.626,81.729,154.171,79.846,152.148,79.273z"/>
					<g>
						<g>
							<circle fill="#DEB4A0" cx="116.817" cy="80.82" r="3.694"/>
							<circle fill="#3C2417" cx="116.851" cy="79.887" r="3.693"/>
							<circle fill="#FFFFFF" cx="118.145" cy="78.779" r="0.923"/>
						</g>
						<g>
							<path fill="#DEB4A0" d="M142.01,81.572c0,2.039-1.651,3.693-3.694,3.693c-2.037,0-3.692-1.654-3.692-3.693
								s1.655-3.695,3.692-3.695C140.358,77.877,142.01,79.533,142.01,81.572z"/>
							<circle fill="#3C2417" cx="138.349" cy="80.639" r="3.693"/>
							<circle fill="#FFFFFF" cx="139.643" cy="79.529" r="0.923"/>
						</g>
					</g>
				</g>
				<g>
					<path fill="#F05D44" d="M135.147,101.449c-0.145,4.131-4.03,7.346-8.673,7.186c-4.647-0.164-8.296-3.643-8.151-7.773
						L135.147,101.449z"/>
					<path fill="#FFFFFF" d="M132.443,104.164l-11.795-0.414c-0.616-0.021-1.097-0.537-1.076-1.15l0.062-1.693l14.02,0.492
						l-0.061,1.691C133.572,103.701,133.056,104.184,132.443,104.164z"/>
				</g>
				<path fill="#3C2417" d="M154.083,77.938c-0.88,3.225-1.946,4.564-3.301,7.707c-0.011,0.027,0.243-9.051,0.243-9.051
					l-4.681-16.053c0,0-8.363,1.494-18.135,1.568c-9.734-0.754-17.973-2.828-17.973-2.828l-5.875,15.684
					c0,0-0.306,9.076-0.313,9.047c-0.553-1.568-2.415-6.232-2.748-7.918c-2.043-10.271-1.59-20.346,2.022-28.088
					c0,0,6.236-14.869,25.874-14.164c0.41,0.004,0.804,0.012,1.195,0.023c5.302,0.186,9.005,1.316,12.531,3.219
					c0,0,5.78,3.055,10.721,0.887c0.163-0.068,0.345,0.061,0.321,0.236c-0.106,0.652-0.436,1.979-1.432,3.188
					c1.26,0.102,2.684,0.057,4.351-0.24c0.021,0,0.037-0.008,0.06-0.008l-0.006,0.064c0.008,3.297-1.236,6.182-2.91,8.566
					C157.093,57.754,156.842,67.832,154.083,77.938z"/>
			</g>
		</g>
	</g>
</g>
</svg>
