<?xml version="1.0" encoding="utf-8"?>
<!-- Generator: Adobe Illustrator 16.0.0, SVG Export Plug-In . SVG Version: 6.00 Build 0)  -->
<!DOCTYPE svg PUBLIC "-//W3C//DTD SVG 1.1//EN" "http://www.w3.org/Graphics/SVG/1.1/DTD/svg11.dtd">
<svg version="1.1" id="Layer_1" xmlns="http://www.w3.org/2000/svg" xmlns:xlink="http://www.w3.org/1999/xlink" x="0px" y="0px"
	 width="750px" height="430px" viewBox="0 0 750 430" enable-background="new 0 0 750 430" xml:space="preserve">
<rect fill="#222222" width="750" height="430"/>
<g>
	<g>
		<g id="man_5_">
			<g>
				<g>
					<path fill="#798ED1" d="M447.357,230.773c-39.964,39.961-104.754,39.961-144.718,0c-39.959-39.961-39.959-104.754,0-144.714
						c39.964-39.966,104.754-39.966,144.718,0C487.321,126.02,487.321,190.813,447.357,230.773z"/>
				</g>
				<path fill="#C8C8C8" d="M338.382,198.76c0.07,3.629,0.502,24.94,1.23,43.329c-0.461-0.136-0.912-0.245-1.348-0.337l0.134-0.222
					l-21.165-23.968L338.382,198.76z"/>
				<g id="man_6_">
					<g>
						<polygon fill="#F2AE75" points="389.022,158.045 385.524,156.431 385.524,145.315 363.08,145.315 363.08,156.431 
							359.568,157.948 360.501,189.478 363.08,189.478 363.08,194.311 385.524,194.311 385.524,189.478 388.087,189.478 						"/>
						<polygon fill="#DEB4A0" points="385.519,146.444 385.519,155.486 363.072,150.775 363.072,146.444 						"/>
					</g>
					<g>
						<path fill="#FFFFFF" d="M326.494,174.907c4.116-8.969,15.665-11.185,32.218-16.88c0.59-0.206,1.188-0.413,1.787-0.629
							c0.008,0.03,0.008,0.065,0.02,0.095c1.09,6.163,4.185,14.143,13.778,15.081c9.594-0.938,12.688-8.918,13.779-15.081
							c0.009-0.029,0.009-0.064,0.019-0.095c0.6,0.216,1.199,0.423,1.787,0.629c16.552,5.695,28.104,7.911,32.217,16.88
							c5.157,11.429-9.65,23.308-9.65,23.308s-1.34,71.809-3.574,71.809h-34.579h-34.577c-2.235,0-3.571-71.809-3.571-71.809
							S321.339,186.336,326.494,174.907z"/>
						<g>
							<polygon fill="#F15D44" points="368.895,170.601 371.051,174.729 377.606,174.729 379.702,170.601 374.298,166.185 							
								"/>
							<path fill="#E6E7E8" d="M374.299,166.185l6.901,7.269l13.428-13.789c-0.021-0.013-8.99-3.96-8.99-3.96l-2.77,2.563
								L374.299,166.185z"/>
							<path fill="#E6E7E8" d="M374.298,166.185l-6.902,7.269l-13.426-13.789c0.02-0.013,8.989-3.96,8.989-3.96l2.771,2.563
								L374.298,166.185z"/>
							<polygon fill="#F15D44" points="371.051,175.713 368.383,261.646 374.298,268.182 380.214,261.646 377.606,175.713 							
								"/>
						</g>
					</g>
					<g>
						<g>
							<g>
								<path fill="#4F4C4D" d="M411.437,151.443l7.491-29.041c0.769-2.978-1.022-6.015-3.997-6.782l-2.805-0.723
									c-2.976-0.769-6.013,1.021-6.779,4l-7.494,29.042c-0.77,2.977,1.023,6.011,4.001,6.78l2.802,0.724
									C407.632,156.211,410.669,154.42,411.437,151.443z"/>
								<path fill="#C8C8C8" d="M397.921,147.671l7.353-28.504c0.808-3.126,3.995-5.006,7.123-4.201l2.265,0.585
									c1.317,0.341,2.396,1.119,3.162,2.124c-0.584-0.43-1.252-0.763-1.994-0.955l-2.266-0.585
									c-3.123-0.806-6.311,1.075-7.119,4.203l-7.354,28.502c-0.466,1.808-0.014,3.619,1.037,4.997
									C398.261,152.461,397.307,150.052,397.921,147.671z"/>
								<path fill="#383643" d="M413.131,121.289l0.376-1.452c0.154-0.597-0.211-1.213-0.809-1.367
									c-0.598-0.154-1.214,0.208-1.365,0.807l-0.375,1.45c-0.155,0.596,0.21,1.212,0.806,1.368
									C412.361,122.246,412.978,121.883,413.131,121.289z"/>
							</g>
							<path fill="#F2AE75" d="M399.158,138.955l8.597,11.708l13.137-4.922l-3.919-15.451c-1.146-3.052-6.884-4.425-10.513-3.067
								C402.832,128.583,398.015,135.901,399.158,138.955z"/>
						</g>
						<path fill="#FFFFFF" d="M435.078,212.018c1.915,0,3.82-0.651,5.366-1.933c2.765-2.288,3.777-6.078,2.518-9.438l-22.547-60.174
							l-15.764,5.907l13.997,37.356l-4.515-2.75l-8.76,17.183l25.328,12.619C432.053,211.611,433.569,212.018,435.078,212.018z"/>
					</g>
					<g>
						<g>
							<path fill="#F2AE75" d="M342.839,249.983l-14.643-11.165l-8.504,11.155l14.642,11.165c2.894,2.207,4.336,1.495,6.685-1.584
								C343.369,256.474,345.731,252.188,342.839,249.983z"/>
							<path fill="#F2AE75" d="M342.501,244.629c-5.108-3.896-11.25-3.253-11.561-3.163c-1.209,0.366-1.957,1.644-1.672,2.851
								c0.286,1.208,1.492,1.893,2.701,1.532c0.025-0.008,0.307-0.016,0.771,0.021c0.463,0.029,1.106,0.104,1.853,0.258
								c1.491,0.308,3.392,0.938,5.074,2.22c0.962,0.737,2.378,0.499,3.161-0.528C343.614,246.792,343.466,245.364,342.501,244.629z
								"/>
						</g>
						<path fill="#FFFFFF" d="M326.601,257.616l9.568-16.086l-21.163-23.968l22.34-19.86l-8.84-26.011l-33.033,41.125
							c-2.545,3.249-2.358,7.862,0.437,10.897L326.601,257.616z"/>
					</g>
					<g>
						<g>
							<path fill="#F2AE75" d="M400.223,114.517l1.104-9.844c0.451-12.908-11.521-23.797-24.42-24.249
								c-12.908-0.45-25.602,9.579-26.052,22.487l0.412,9.888c-0.729,0.146-1.388,0.456-1.95,0.903
								c-1.039,0.825-1.72,2.073-1.77,3.505l-0.17,4.859c-0.088,2.569,1.906,4.725,4.482,4.833
								c-0.426,12.188,13.814,24.256,22.566,24.561c8.749,0.304,23.799-10.735,24.227-22.928c2.563,0.073,4.712-1.936,4.801-4.508
								l0.17-4.859C403.7,116.972,402.245,115.09,400.223,114.517z"/>
							<path opacity="0.8" fill="#F6CCB8" d="M400.223,114.517l1.104-9.844c0.451-12.908-11.521-23.797-24.42-24.249
								c-0.005,0-1.162,33.181-1.162,33.181c-3.662,7.132-6.229,17.564-6.229,17.564l5.606,0.197l-0.699,20.095
								c8.758,0.302,23.802-10.74,24.229-22.928c2.563,0.073,4.712-1.936,4.801-4.508l0.17-4.859
								C403.7,116.972,402.245,115.09,400.223,114.517z"/>
							<g>
								<g>
									<circle fill="#DEB4A0" cx="364.891" cy="116.064" r="3.694"/>
									<circle fill="#3C2417" cx="364.925" cy="115.13" r="3.693"/>
									<circle fill="#FFFFFF" cx="366.219" cy="114.023" r="0.923"/>
								</g>
								<g>
									<path fill="#DEB4A0" d="M390.084,116.816c0,2.039-1.651,3.693-3.694,3.693c-2.037,0-3.692-1.654-3.692-3.693
										c0-2.04,1.655-3.695,3.692-3.695C388.433,113.121,390.084,114.776,390.084,116.816z"/>
									<circle fill="#3C2417" cx="386.423" cy="115.883" r="3.693"/>
									<circle fill="#FFFFFF" cx="387.717" cy="114.774" r="0.923"/>
								</g>
							</g>
						</g>
						<g>
							<path fill="#F05D44" d="M383.222,136.693c-0.145,4.13-4.03,7.346-8.673,7.185c-4.647-0.164-8.296-3.643-8.151-7.773
								L383.222,136.693z"/>
							<path fill="#FFFFFF" d="M380.518,139.408l-11.795-0.413c-0.616-0.022-1.097-0.538-1.076-1.15l0.062-1.694l14.02,0.493
								l-0.061,1.69C381.646,138.946,381.13,139.428,380.518,139.408z"/>
						</g>
						<path fill="#3C2417" d="M402.157,113.181c-0.88,3.225-1.946,4.564-3.301,7.708c-0.011,0.027,0.243-9.051,0.243-9.051
							l-4.681-16.053c0,0-8.363,1.494-18.135,1.567c-9.734-0.753-17.973-2.827-17.973-2.827l-5.875,15.684
							c0,0-0.306,9.077-0.313,9.047c-0.553-1.57-2.415-6.233-2.748-7.919c-2.043-10.271-1.59-20.345,2.022-28.088
							c0,0,6.236-14.868,25.874-14.163c0.41,0.003,0.804,0.01,1.195,0.022c5.302,0.186,9.005,1.317,12.531,3.219
							c0,0,5.78,3.056,10.721,0.888c0.163-0.069,0.345,0.06,0.321,0.236c-0.106,0.651-0.436,1.979-1.432,3.188
							c1.26,0.101,2.684,0.056,4.351-0.24c0.021,0,0.037-0.008,0.06-0.008l-0.006,0.064c0.008,3.296-1.236,6.181-2.91,8.565
							C405.167,92.998,404.916,103.076,402.157,113.181z"/>
					</g>
				</g>
			</g>
		</g>
		<g>
			<path fill="#EDEDED" d="M290.954,304.115h8.977c1.607,0,2.909,0.162,3.906,0.485c0.998,0.323,1.773,0.757,2.328,1.302
				c0.554,0.545,0.928,1.173,1.122,1.884c0.193,0.712,0.29,1.464,0.29,2.258c0,0.924-0.193,1.728-0.581,2.411
				s-0.915,1.251-1.579,1.703c-0.665,0.453-1.437,0.795-2.313,1.025c-0.878,0.231-1.815,0.347-2.813,0.347h-2.105v4.294h1.69v3.657
				h-8.922v-3.657h1.552v-12.079h-1.552V304.115z M298.186,307.717v4.821h1.247c0.813,0,1.468-0.198,1.967-0.596
				s0.748-0.965,0.748-1.704c0-0.831-0.227-1.459-0.679-1.884c-0.453-0.425-1.086-0.638-1.898-0.638H298.186z"/>
			<path fill="#EDEDED" d="M316.526,323.481h-7.841v-3.63h1.22v-6.621h-1.191v-3.602h5.208l0.831,1.773
				c0.185-0.333,0.379-0.646,0.582-0.942c0.203-0.295,0.462-0.559,0.776-0.79c0.313-0.23,0.701-0.41,1.163-0.54
				c0.462-0.129,1.053-0.193,1.773-0.193v4.986c-1.257,0-2.222,0.208-2.896,0.624c-0.675,0.415-1.011,1.232-1.011,2.451v2.854h1.385
				V323.481z"/>
			<path fill="#EDEDED" d="M327.497,323.842c-0.997,0-1.962-0.152-2.895-0.457c-0.934-0.305-1.76-0.762-2.479-1.372
				c-0.721-0.609-1.294-1.375-1.718-2.299c-0.426-0.924-0.638-1.995-0.638-3.214c0-1.164,0.217-2.193,0.651-3.09
				c0.434-0.896,1.006-1.648,1.718-2.258c0.711-0.609,1.523-1.071,2.438-1.385c0.915-0.314,1.843-0.472,2.785-0.472
				c1.089,0,2.105,0.171,3.047,0.513c0.942,0.342,1.76,0.831,2.452,1.469c0.692,0.637,1.233,1.413,1.621,2.327
				s0.582,1.953,0.582,3.117c0,1.146-0.199,2.156-0.596,3.033c-0.397,0.878-0.938,1.621-1.621,2.23
				c-0.684,0.609-1.482,1.071-2.396,1.386C329.534,323.685,328.55,323.842,327.497,323.842z M327.497,320.295
				c0.296,0,0.559-0.092,0.79-0.276c0.23-0.185,0.43-0.443,0.596-0.776c0.166-0.332,0.291-0.725,0.374-1.177
				c0.083-0.453,0.125-0.938,0.125-1.455c0-0.517-0.047-1.002-0.139-1.454c-0.093-0.453-0.222-0.846-0.388-1.178
				c-0.167-0.332-0.374-0.596-0.624-0.79c-0.249-0.193-0.54-0.29-0.872-0.29c-0.277,0-0.531,0.092-0.763,0.276
				c-0.23,0.186-0.429,0.443-0.596,0.776c-0.166,0.332-0.3,0.72-0.401,1.163s-0.152,0.914-0.152,1.413
				c0,1.146,0.194,2.06,0.582,2.743S326.906,320.295,327.497,320.295z"/>
			<path fill="#EDEDED" d="M336.058,325.504h1.164v-12.19h-1.164v-3.685h6.345l0.471,0.97c0.129-0.093,0.301-0.208,0.513-0.347
				s0.457-0.268,0.734-0.388s0.591-0.226,0.942-0.318c0.351-0.093,0.738-0.139,1.163-0.139c1.071,0,2.018,0.193,2.84,0.582
				c0.822,0.388,1.505,0.914,2.051,1.579c0.544,0.665,0.955,1.437,1.232,2.313s0.416,1.806,0.416,2.784
				c0,1.108-0.162,2.102-0.485,2.979s-0.767,1.62-1.33,2.23c-0.563,0.609-1.232,1.08-2.009,1.412
				c-0.775,0.333-1.606,0.499-2.493,0.499c-0.572,0-1.076-0.046-1.51-0.139c-0.435-0.093-0.794-0.203-1.08-0.332
				c-0.287-0.129-0.513-0.254-0.68-0.374c-0.166-0.12-0.276-0.198-0.332-0.235v2.798h1.496v3.63h-8.284V325.504z M346.808,316.722
				c0-0.406-0.046-0.817-0.139-1.233c-0.093-0.415-0.227-0.78-0.401-1.094c-0.176-0.314-0.388-0.573-0.638-0.776
				c-0.249-0.203-0.521-0.305-0.817-0.305c-0.517,0-0.975,0.287-1.371,0.859c-0.397,0.572-0.596,1.357-0.596,2.354
				c0,0.518,0.046,0.997,0.139,1.44c0.092,0.443,0.226,0.831,0.401,1.164c0.176,0.332,0.388,0.591,0.638,0.775
				c0.249,0.186,0.521,0.277,0.817,0.277c0.591,0,1.066-0.313,1.427-0.942C346.628,318.615,346.808,317.774,346.808,316.722z"/>
			<path fill="#EDEDED" d="M354.038,310.792c0.277-0.166,0.628-0.359,1.053-0.581s0.9-0.438,1.427-0.651
				c0.527-0.212,1.09-0.388,1.69-0.526c0.6-0.139,1.224-0.208,1.87-0.208c0.831,0,1.69,0.088,2.577,0.264
				c0.886,0.176,1.694,0.48,2.424,0.914s1.33,1.021,1.801,1.759c0.471,0.739,0.706,1.663,0.706,2.771v5.403h1.663v3.546h-5.93
				l-0.664-1.247c-0.26,0.352-0.55,0.643-0.873,0.873c-0.323,0.231-0.656,0.411-0.997,0.54c-0.343,0.129-0.68,0.222-1.012,0.277
				s-0.619,0.083-0.858,0.083c-0.665,0-1.321-0.093-1.968-0.277s-1.229-0.461-1.745-0.831c-0.518-0.369-0.938-0.845-1.261-1.427
				s-0.484-1.278-0.484-2.092c0-0.775,0.152-1.478,0.457-2.105s0.72-1.164,1.246-1.606c0.526-0.443,1.141-0.785,1.843-1.025
				s1.44-0.36,2.217-0.36c0.405,0,0.771,0.042,1.094,0.125s0.601,0.18,0.831,0.291c0.231,0.11,0.416,0.222,0.555,0.332
				c0.139,0.111,0.226,0.185,0.263,0.222v-0.97c0-0.628-0.249-1.043-0.748-1.247c-0.498-0.203-1.127-0.305-1.884-0.305
				c-0.831,0-1.593,0.139-2.285,0.416c-0.693,0.277-1.308,0.563-1.843,0.858L354.038,310.792z M360.189,320.406
				c0.424,0,0.794-0.102,1.107-0.305c0.314-0.203,0.536-0.406,0.665-0.609v-1.053c-0.019-0.037-0.06-0.098-0.124-0.181
				c-0.065-0.083-0.162-0.17-0.291-0.263c-0.13-0.093-0.291-0.176-0.485-0.25c-0.193-0.073-0.438-0.11-0.734-0.11
				c-0.554,0-0.96,0.139-1.219,0.415c-0.259,0.277-0.388,0.629-0.388,1.053c0,0.389,0.139,0.702,0.415,0.942
				C359.413,320.286,359.764,320.406,360.189,320.406z"/>
			<path fill="#EDEDED" d="M371.798,323.647c0.166,0.147,0.41,0.318,0.733,0.513s0.697,0.388,1.122,0.582
				c0.425,0.193,0.892,0.355,1.399,0.484s1.029,0.194,1.565,0.194c0.628,0,1.145-0.083,1.552-0.249
				c0.406-0.167,0.734-0.374,0.983-0.624c0.249-0.249,0.425-0.526,0.526-0.831s0.152-0.604,0.152-0.9v-0.941
				c-0.093,0.129-0.231,0.281-0.416,0.457s-0.411,0.342-0.679,0.498c-0.268,0.157-0.581,0.291-0.941,0.402
				c-0.36,0.11-0.762,0.166-1.205,0.166c-1.201,0-2.222-0.198-3.062-0.596c-0.841-0.397-1.524-0.919-2.051-1.565
				s-0.914-1.386-1.163-2.217c-0.25-0.831-0.374-1.68-0.374-2.549c0-1.07,0.147-2.045,0.443-2.923
				c0.295-0.877,0.733-1.625,1.315-2.244c0.582-0.618,1.307-1.099,2.175-1.44s1.875-0.513,3.021-0.513
				c0.609,0,1.182,0.12,1.718,0.36c0.535,0.24,0.941,0.499,1.219,0.775l0.554-0.858h6.594v3.629h-1.662v8.284
				c0,1.146-0.176,2.184-0.526,3.117c-0.351,0.933-0.887,1.731-1.606,2.396c-0.721,0.665-1.621,1.182-2.701,1.552
				c-1.081,0.369-2.351,0.554-3.81,0.554c-0.758,0-1.464-0.083-2.12-0.249c-0.655-0.167-1.256-0.374-1.801-0.624
				c-0.545-0.249-1.021-0.513-1.427-0.789c-0.406-0.277-0.738-0.536-0.997-0.776L371.798,323.647z M375.843,316.417
				c0,0.425,0.046,0.84,0.138,1.246c0.093,0.406,0.227,0.767,0.402,1.081c0.175,0.313,0.383,0.572,0.623,0.775
				s0.517,0.305,0.831,0.305c0.518,0,0.975-0.286,1.372-0.858c0.396-0.572,0.596-1.358,0.596-2.355c0-0.517-0.047-0.997-0.139-1.44
				c-0.093-0.443-0.227-0.831-0.402-1.164c-0.176-0.332-0.388-0.591-0.637-0.775c-0.25-0.185-0.522-0.277-0.817-0.277
				c-0.592,0-1.066,0.314-1.427,0.942S375.843,315.363,375.843,316.417z"/>
			<path fill="#EDEDED" d="M388.393,310.792c0.277-0.166,0.628-0.359,1.053-0.581s0.9-0.438,1.427-0.651
				c0.527-0.212,1.09-0.388,1.69-0.526c0.6-0.139,1.224-0.208,1.87-0.208c0.831,0,1.69,0.088,2.577,0.264
				c0.886,0.176,1.694,0.48,2.424,0.914s1.33,1.021,1.801,1.759c0.471,0.739,0.706,1.663,0.706,2.771v5.403h1.663v3.546h-5.93
				l-0.664-1.247c-0.26,0.352-0.55,0.643-0.873,0.873c-0.323,0.231-0.656,0.411-0.997,0.54c-0.343,0.129-0.68,0.222-1.012,0.277
				s-0.619,0.083-0.858,0.083c-0.665,0-1.321-0.093-1.968-0.277s-1.229-0.461-1.745-0.831c-0.518-0.369-0.938-0.845-1.261-1.427
				s-0.484-1.278-0.484-2.092c0-0.775,0.152-1.478,0.457-2.105s0.72-1.164,1.246-1.606c0.526-0.443,1.141-0.785,1.843-1.025
				s1.44-0.36,2.217-0.36c0.405,0,0.771,0.042,1.094,0.125s0.601,0.18,0.831,0.291c0.231,0.11,0.416,0.222,0.555,0.332
				c0.139,0.111,0.226,0.185,0.263,0.222v-0.97c0-0.628-0.249-1.043-0.748-1.247c-0.498-0.203-1.127-0.305-1.884-0.305
				c-0.831,0-1.593,0.139-2.285,0.416c-0.693,0.277-1.308,0.563-1.843,0.858L388.393,310.792z M394.544,320.406
				c0.424,0,0.794-0.102,1.107-0.305c0.314-0.203,0.536-0.406,0.665-0.609v-1.053c-0.019-0.037-0.06-0.098-0.124-0.181
				c-0.065-0.083-0.162-0.17-0.291-0.263c-0.13-0.093-0.291-0.176-0.485-0.25c-0.193-0.073-0.438-0.11-0.734-0.11
				c-0.554,0-0.96,0.139-1.219,0.415c-0.259,0.277-0.388,0.629-0.388,1.053c0,0.389,0.139,0.702,0.415,0.942
				C393.768,320.286,394.118,320.406,394.544,320.406z"/>
			<path fill="#EDEDED" d="M413.244,323.481h-8.533v-3.63h1.164v-6.621h-1.164v-3.602h5.901l0.638,1.718
				c0.479-0.646,1.039-1.178,1.676-1.594c0.638-0.415,1.399-0.623,2.286-0.623c1.07,0,1.935,0.181,2.59,0.54
				c0.655,0.36,1.164,0.831,1.524,1.413c0.359,0.582,0.6,1.238,0.72,1.968s0.181,1.454,0.181,2.175v4.626h1.302v3.63h-6.981v-7.563
				c0-0.24-0.005-0.508-0.014-0.804c-0.01-0.295-0.061-0.572-0.152-0.831c-0.093-0.259-0.245-0.48-0.458-0.665
				c-0.212-0.185-0.521-0.277-0.928-0.277c-0.352,0-0.642,0.079-0.873,0.236c-0.23,0.157-0.411,0.359-0.54,0.609
				c-0.129,0.249-0.217,0.526-0.263,0.831c-0.047,0.305-0.069,0.605-0.069,0.9v3.934h1.994V323.481z"/>
			<path fill="#EDEDED" d="M432.139,306.304h-1.274v-3.602h6.898v17.178h1.33v3.602h-6.482l-0.472-1.025
				c-0.093,0.093-0.235,0.208-0.429,0.347c-0.194,0.139-0.439,0.277-0.734,0.415c-0.296,0.139-0.638,0.26-1.025,0.36
				c-0.388,0.102-0.822,0.152-1.302,0.152c-0.979,0-1.866-0.198-2.66-0.596c-0.794-0.396-1.469-0.932-2.022-1.606
				c-0.554-0.674-0.983-1.455-1.288-2.341c-0.305-0.887-0.457-1.811-0.457-2.771c0-1.071,0.175-2.046,0.526-2.924
				c0.351-0.877,0.821-1.62,1.413-2.229c0.591-0.609,1.274-1.081,2.05-1.413c0.775-0.333,1.588-0.499,2.438-0.499
				c0.979,0,1.74,0.135,2.285,0.401c0.545,0.269,0.946,0.485,1.205,0.651V306.304z M428.177,316.417c0,0.425,0.046,0.84,0.139,1.246
				s0.227,0.767,0.402,1.081c0.175,0.313,0.383,0.572,0.623,0.775c0.239,0.203,0.517,0.305,0.831,0.305
				c0.517,0,0.974-0.286,1.371-0.858s0.596-1.358,0.596-2.355c0-0.517-0.046-0.997-0.139-1.44c-0.092-0.443-0.226-0.831-0.401-1.164
				c-0.176-0.332-0.388-0.591-0.637-0.775c-0.25-0.185-0.522-0.277-0.817-0.277c-0.592,0-1.067,0.314-1.427,0.942
				C428.357,314.523,428.177,315.363,428.177,316.417z"/>
			<path fill="#EDEDED" d="M447.959,323.481h-7.758v-3.63h1.164v-6.621h-1.164v-3.602h6.428v10.223h1.33V323.481z M440.978,305.584
				c0-0.314,0.064-0.638,0.193-0.97c0.129-0.333,0.318-0.638,0.568-0.914c0.249-0.277,0.563-0.504,0.941-0.68
				c0.379-0.175,0.809-0.263,1.289-0.263c0.479,0,0.909,0.088,1.288,0.263c0.378,0.176,0.697,0.402,0.956,0.68
				c0.258,0.276,0.457,0.581,0.596,0.914c0.138,0.332,0.207,0.655,0.207,0.97c0,0.775-0.259,1.437-0.775,1.98
				c-0.518,0.545-1.274,0.817-2.271,0.817c-0.443,0-0.846-0.083-1.205-0.249c-0.36-0.166-0.675-0.383-0.942-0.651
				c-0.268-0.268-0.476-0.567-0.623-0.9C441.051,306.249,440.978,305.916,440.978,305.584z"/>
			<path fill="#EDEDED" d="M449.067,323.481v-4.987h3.712c0,0.37,0.115,0.675,0.347,0.915c0.23,0.24,0.503,0.429,0.817,0.567
				c0.313,0.139,0.637,0.235,0.97,0.291c0.332,0.056,0.6,0.083,0.803,0.083c0.277,0,0.55-0.06,0.817-0.18s0.402-0.374,0.402-0.762
				c0-0.259-0.189-0.467-0.568-0.624c-0.379-0.156-0.858-0.309-1.44-0.457c-0.582-0.147-1.205-0.323-1.87-0.526
				s-1.288-0.484-1.87-0.845s-1.063-0.831-1.44-1.413c-0.379-0.582-0.568-1.325-0.568-2.23c0-0.701,0.161-1.307,0.485-1.814
				c0.322-0.508,0.729-0.924,1.219-1.247c0.489-0.323,1.016-0.563,1.579-0.72c0.563-0.157,1.095-0.236,1.593-0.236
				c0.942,0,1.792,0.213,2.549,0.638c0.758,0.425,1.284,0.933,1.579,1.523l0.222-1.828h3.408v4.986h-3.602
				c0-0.295-0.083-0.567-0.25-0.816c-0.166-0.25-0.383-0.472-0.65-0.665c-0.269-0.194-0.568-0.347-0.9-0.457
				c-0.333-0.111-0.675-0.167-1.025-0.167c-0.296,0-0.55,0.079-0.762,0.235c-0.213,0.157-0.318,0.412-0.318,0.763
				c0,0.313,0.193,0.563,0.581,0.748c0.389,0.185,0.873,0.364,1.455,0.54s1.214,0.369,1.897,0.582
				c0.684,0.212,1.316,0.494,1.898,0.845c0.581,0.351,1.066,0.799,1.454,1.344s0.582,1.242,0.582,2.092
				c0,0.646-0.144,1.229-0.43,1.745c-0.286,0.518-0.665,0.956-1.136,1.316s-1.021,0.633-1.648,0.817s-1.274,0.276-1.939,0.276
				c-0.997,0-1.87-0.203-2.618-0.609s-1.288-0.877-1.621-1.413l-0.249,1.69H449.067z"/>
			<path fill="#EDEDED" d="M463.142,309.629h1.496v-2.549l5.098-1.635v4.184h2.632v3.602h-2.632v4.932
				c0,0.129-0.005,0.259-0.014,0.388c-0.01,0.13-0.015,0.268-0.015,0.416c0,0.369,0.051,0.697,0.152,0.983s0.355,0.43,0.763,0.43
				c0.184,0,0.457-0.051,0.816-0.153c0.36-0.101,0.67-0.207,0.929-0.318v3.547c-0.203,0.092-0.462,0.17-0.775,0.235
				c-0.314,0.064-0.638,0.115-0.97,0.152c-0.333,0.036-0.643,0.069-0.929,0.097s-0.513,0.042-0.679,0.042
				c-1.034,0-1.843-0.139-2.424-0.416c-0.582-0.277-1.012-0.665-1.289-1.163c-0.276-0.499-0.452-1.108-0.526-1.829
				c-0.073-0.721-0.12-1.523-0.138-2.41v-4.932h-1.496V309.629z"/>
		</g>
		<g>
			<path fill="#898989" d="M310.683,348.036c-0.178,0.921-0.461,1.754-0.849,2.497s-0.877,1.382-1.467,1.915
				s-1.272,0.945-2.048,1.236c-0.776,0.291-1.633,0.437-2.57,0.437c-1.051,0-2.032-0.178-2.945-0.533s-1.701-0.889-2.363-1.601
				c-0.663-0.711-1.185-1.588-1.563-2.63c-0.38-1.042-0.57-2.258-0.57-3.648c0-1.357,0.174-2.582,0.521-3.673
				s0.845-2.012,1.491-2.764c0.646-0.751,1.434-1.329,2.363-1.733c0.93-0.403,1.968-0.605,3.115-0.605
				c1.002,0,1.911,0.149,2.728,0.448c0.815,0.299,1.519,0.711,2.108,1.236s1.059,1.144,1.406,1.854s0.562,1.471,0.643,2.278h-3.37
				c-0.226-0.921-0.662-1.636-1.309-2.145c-0.646-0.51-1.374-0.764-2.182-0.764c-1.406,0-2.44,0.505-3.104,1.515
				c-0.662,1.011-0.993,2.396-0.993,4.157c0,1.794,0.327,3.188,0.981,4.183c0.654,0.993,1.637,1.49,2.945,1.49
				c1.002,0,1.806-0.271,2.412-0.812c0.606-0.542,1.022-1.321,1.248-2.34H310.683z"/>
			<path fill="#898989" d="M317.18,353.879c-0.97,0-1.835-0.154-2.594-0.461c-0.76-0.307-1.402-0.735-1.928-1.285
				c-0.525-0.549-0.925-1.212-1.2-1.987c-0.274-0.776-0.412-1.624-0.412-2.546c0-0.937,0.142-1.794,0.425-2.569
				c0.282-0.775,0.69-1.438,1.224-1.988c0.534-0.549,1.176-0.973,1.928-1.272c0.751-0.299,1.604-0.448,2.558-0.448
				c0.937,0,1.777,0.149,2.521,0.448c0.743,0.3,1.377,0.72,1.902,1.261c0.525,0.542,0.93,1.2,1.212,1.976
				c0.283,0.775,0.425,1.641,0.425,2.594c0,0.954-0.142,1.814-0.425,2.582c-0.282,0.768-0.687,1.427-1.212,1.976
				c-0.525,0.55-1.163,0.974-1.915,1.272C318.938,353.729,318.101,353.879,317.18,353.879z M317.18,351.236
				c1.923,0,2.885-1.212,2.885-3.637c0-2.407-0.962-3.612-2.885-3.612c-1.924,0-2.885,1.205-2.885,3.612
				C314.295,350.024,315.256,351.236,317.18,351.236z"/>
			<path fill="#898989" d="M338.246,353.563v-7.225c0-0.727-0.17-1.316-0.509-1.77c-0.34-0.452-0.792-0.679-1.358-0.679
				c-0.581,0-1.063,0.242-1.442,0.728c-0.38,0.484-0.569,1.091-0.569,1.818v7.127h-3.151v-7.176c0-0.484-0.032-0.881-0.097-1.188
				c-0.065-0.307-0.174-0.55-0.327-0.728c-0.154-0.178-0.352-0.303-0.595-0.376c-0.242-0.072-0.533-0.109-0.872-0.109
				c-1.277,0-1.915,0.776-1.915,2.328v7.248h-3.152v-11.927h2.958v1.745c0.403-0.792,0.889-1.333,1.454-1.624
				c0.566-0.291,1.245-0.437,2.037-0.437c0.403,0,0.764,0.032,1.078,0.097c0.315,0.064,0.598,0.174,0.849,0.327
				c0.251,0.154,0.489,0.352,0.715,0.594c0.227,0.243,0.453,0.534,0.68,0.873c0.322-0.662,0.751-1.143,1.284-1.442
				c0.533-0.299,1.18-0.448,1.939-0.448c0.598,0,1.147,0.101,1.648,0.303s0.93,0.485,1.285,0.849s0.634,0.788,0.836,1.272
				c0.202,0.485,0.304,1.003,0.304,1.552v8.267H338.246z"/>
			<path fill="#898989" d="M356.573,353.563v-7.225c0-0.727-0.17-1.316-0.509-1.77c-0.34-0.452-0.792-0.679-1.358-0.679
				c-0.581,0-1.063,0.242-1.442,0.728c-0.38,0.484-0.569,1.091-0.569,1.818v7.127h-3.151v-7.176c0-0.484-0.032-0.881-0.097-1.188
				c-0.065-0.307-0.174-0.55-0.327-0.728c-0.154-0.178-0.352-0.303-0.595-0.376c-0.242-0.072-0.533-0.109-0.872-0.109
				c-1.277,0-1.915,0.776-1.915,2.328v7.248h-3.152v-11.927h2.958v1.745c0.403-0.792,0.889-1.333,1.454-1.624
				c0.566-0.291,1.245-0.437,2.037-0.437c0.403,0,0.764,0.032,1.078,0.097c0.315,0.064,0.598,0.174,0.849,0.327
				c0.251,0.154,0.489,0.352,0.715,0.594c0.227,0.243,0.453,0.534,0.68,0.873c0.322-0.662,0.751-1.143,1.284-1.442
				c0.533-0.299,1.18-0.448,1.939-0.448c0.598,0,1.147,0.101,1.648,0.303s0.93,0.485,1.285,0.849s0.634,0.788,0.836,1.272
				c0.202,0.485,0.304,1.003,0.304,1.552v8.267H356.573z"/>
			<path fill="#898989" d="M368.67,353.563v-1.673c-0.809,1.325-2.045,1.988-3.709,1.988c-0.598,0-1.144-0.105-1.637-0.315
				s-0.917-0.509-1.272-0.896c-0.355-0.389-0.635-0.849-0.836-1.382c-0.202-0.534-0.304-1.132-0.304-1.794v-7.854h3.152v7.369
				c0,1.487,0.67,2.23,2.012,2.23c0.808,0,1.418-0.255,1.83-0.764s0.618-1.159,0.618-1.951v-6.885h3.127v11.927H368.67z"/>
			<path fill="#898989" d="M380.548,353.563v-7.225c0-0.921-0.153-1.543-0.461-1.866c-0.307-0.323-0.832-0.485-1.575-0.485
				c-1.633,0-2.448,0.914-2.448,2.74v6.836h-3.152v-11.927h3.007v1.745c0.371-0.679,0.864-1.191,1.479-1.539
				s1.406-0.521,2.376-0.521c0.565,0,1.091,0.085,1.575,0.254c0.485,0.17,0.901,0.425,1.249,0.764
				c0.347,0.34,0.622,0.756,0.824,1.249c0.201,0.493,0.303,1.063,0.303,1.709v8.267H380.548z"/>
			<path fill="#898989" d="M385.057,340.206v-2.934h3.151v2.934H385.057z M385.057,353.563v-11.927h3.151v11.927H385.057z"/>
			<path fill="#898989" d="M400.28,349.248c-0.081,0.695-0.278,1.325-0.594,1.892c-0.314,0.565-0.715,1.051-1.199,1.454
				c-0.485,0.404-1.039,0.72-1.661,0.945c-0.622,0.227-1.297,0.34-2.024,0.34c-0.808,0-1.548-0.134-2.218-0.4
				c-0.671-0.267-1.249-0.67-1.733-1.212c-0.485-0.541-0.86-1.212-1.127-2.012c-0.267-0.801-0.4-1.733-0.4-2.801
				c0-1.066,0.134-1.987,0.4-2.764c0.267-0.775,0.642-1.409,1.127-1.902c0.484-0.493,1.07-0.861,1.758-1.104
				c0.687-0.242,1.45-0.363,2.291-0.363c0.775,0,1.482,0.105,2.121,0.315c0.638,0.21,1.195,0.517,1.673,0.921
				c0.476,0.404,0.852,0.889,1.127,1.454c0.274,0.566,0.437,1.196,0.484,1.892h-3.176c-0.081-0.614-0.327-1.095-0.739-1.442
				s-0.917-0.521-1.515-0.521c-0.34,0-0.655,0.057-0.945,0.17c-0.291,0.113-0.546,0.303-0.764,0.569
				c-0.219,0.267-0.393,0.622-0.521,1.066c-0.13,0.445-0.194,0.99-0.194,1.637c0,1.309,0.234,2.278,0.703,2.909
				c0.469,0.63,1.01,0.945,1.624,0.945s1.14-0.17,1.576-0.509c0.437-0.34,0.687-0.833,0.752-1.479H400.28z"/>
			<path fill="#898989" d="M408.547,353.563c-0.097-0.307-0.161-0.662-0.193-1.066c-0.372,0.42-0.865,0.756-1.479,1.006
				s-1.325,0.376-2.133,0.376c-1.374,0-2.38-0.304-3.019-0.909c-0.639-0.606-0.957-1.395-0.957-2.364
				c0-0.856,0.137-1.539,0.412-2.048c0.274-0.509,0.654-0.909,1.139-1.2c0.485-0.291,1.063-0.505,1.733-0.643
				c0.671-0.137,1.402-0.263,2.194-0.376c0.792-0.112,1.325-0.262,1.6-0.448c0.275-0.186,0.412-0.488,0.412-0.909
				c0-0.388-0.182-0.69-0.545-0.909c-0.364-0.218-0.853-0.327-1.467-0.327c-0.728,0-1.248,0.162-1.563,0.485
				s-0.514,0.751-0.594,1.284h-2.934c0.016-0.613,0.117-1.179,0.303-1.696s0.485-0.962,0.897-1.334
				c0.412-0.371,0.949-0.658,1.611-0.86c0.663-0.202,1.471-0.303,2.425-0.303c0.938,0,1.733,0.105,2.388,0.315
				s1.18,0.513,1.576,0.908c0.396,0.396,0.683,0.89,0.86,1.479s0.267,1.257,0.267,2v7.539H408.547z M408.329,347.721
				c-0.162,0.162-0.396,0.291-0.703,0.389c-0.308,0.097-0.752,0.202-1.333,0.314c-0.905,0.179-1.527,0.404-1.867,0.679
				c-0.339,0.275-0.509,0.671-0.509,1.188c0,0.889,0.509,1.333,1.527,1.333c0.403,0,0.779-0.068,1.127-0.206
				c0.348-0.137,0.646-0.323,0.897-0.558c0.25-0.234,0.452-0.509,0.605-0.824s0.23-0.65,0.23-1.006L408.329,347.721z"/>
			<path fill="#898989" d="M419.504,345.709h2.934v3.394c0,0.631-0.093,1.233-0.278,1.807c-0.187,0.573-0.478,1.083-0.873,1.527
				c-0.396,0.444-0.897,0.796-1.503,1.055c-0.606,0.258-1.33,0.388-2.17,0.388c-0.873,0-1.616-0.13-2.23-0.388
				c-0.614-0.259-1.119-0.606-1.515-1.043c-0.396-0.437-0.684-0.945-0.861-1.527s-0.267-1.195-0.267-1.842v-10.667h3.104v3.225
				h6.594v2.229h-6.594v4.897c0,0.76,0.142,1.346,0.424,1.758c0.283,0.412,0.748,0.618,1.395,0.618c0.63,0,1.095-0.202,1.394-0.606
				c0.299-0.403,0.448-0.978,0.448-1.722V345.709z"/>
			<path fill="#898989" d="M423.649,340.206v-2.934h3.151v2.934H423.649z M423.649,353.563v-11.927h3.151v11.927H423.649z"/>
			<path fill="#898989" d="M434.001,353.879c-0.97,0-1.835-0.154-2.594-0.461c-0.76-0.307-1.402-0.735-1.928-1.285
				c-0.525-0.549-0.925-1.212-1.2-1.987c-0.274-0.776-0.412-1.624-0.412-2.546c0-0.937,0.142-1.794,0.425-2.569
				c0.282-0.775,0.69-1.438,1.224-1.988c0.534-0.549,1.176-0.973,1.928-1.272c0.751-0.299,1.604-0.448,2.558-0.448
				c0.937,0,1.777,0.149,2.521,0.448c0.743,0.3,1.377,0.72,1.902,1.261c0.525,0.542,0.93,1.2,1.212,1.976
				c0.283,0.775,0.425,1.641,0.425,2.594c0,0.954-0.142,1.814-0.425,2.582c-0.282,0.768-0.687,1.427-1.212,1.976
				c-0.525,0.55-1.163,0.974-1.915,1.272C435.759,353.729,434.922,353.879,434.001,353.879z M434.001,351.236
				c1.923,0,2.885-1.212,2.885-3.637c0-2.407-0.962-3.612-2.885-3.612c-1.924,0-2.885,1.205-2.885,3.612
				C431.116,350.024,432.077,351.236,434.001,351.236z"/>
			<path fill="#898989" d="M448.716,353.563v-7.225c0-0.921-0.153-1.543-0.461-1.866c-0.307-0.323-0.832-0.485-1.575-0.485
				c-1.633,0-2.448,0.914-2.448,2.74v6.836h-3.152v-11.927h3.007v1.745c0.371-0.679,0.864-1.191,1.479-1.539
				s1.406-0.521,2.376-0.521c0.565,0,1.091,0.085,1.575,0.254c0.485,0.17,0.901,0.425,1.249,0.764
				c0.347,0.34,0.622,0.756,0.824,1.249c0.201,0.493,0.303,1.063,0.303,1.709v8.267H448.716z"/>
			<path fill="#898989" d="M460.327,345.248c-0.081-0.549-0.287-0.949-0.618-1.199c-0.331-0.251-0.836-0.376-1.515-0.376
				c-0.646,0-1.136,0.077-1.467,0.23s-0.497,0.416-0.497,0.787c0,0.324,0.166,0.582,0.497,0.776c0.331,0.193,0.813,0.38,1.442,0.558
				c1.034,0.291,1.907,0.537,2.618,0.739s1.28,0.44,1.709,0.715c0.428,0.275,0.735,0.618,0.921,1.03s0.279,0.966,0.279,1.661
				c0,1.066-0.444,1.951-1.333,2.654c-0.89,0.703-2.206,1.055-3.952,1.055c-0.856,0-1.632-0.098-2.327-0.291
				c-0.695-0.194-1.289-0.473-1.781-0.837c-0.493-0.363-0.873-0.8-1.14-1.309s-0.408-1.079-0.425-1.709h3.249
				c0,0.565,0.222,1.002,0.667,1.309c0.443,0.308,1.021,0.461,1.732,0.461c0.598,0,1.111-0.093,1.54-0.279
				c0.428-0.186,0.643-0.473,0.643-0.86c0-0.437-0.158-0.751-0.473-0.945c-0.315-0.194-0.797-0.363-1.443-0.509
				c-1.163-0.259-2.101-0.529-2.812-0.813c-0.712-0.282-1.265-0.594-1.661-0.934c-0.396-0.339-0.662-0.711-0.8-1.114
				c-0.138-0.404-0.206-0.856-0.206-1.358c0-0.452,0.093-0.88,0.279-1.284c0.186-0.404,0.48-0.76,0.885-1.067
				c0.403-0.307,0.929-0.553,1.575-0.739c0.646-0.186,1.438-0.278,2.376-0.278c1.713,0,2.966,0.348,3.758,1.042
				c0.792,0.695,1.228,1.657,1.309,2.885H460.327z"/>
			<path fill="#898989" d="M331.882,377.806l-1.019-3.321h-5.939l-1.139,3.321h-3.564l5.746-16.097h3.902l5.673,16.097H331.882z
				 M327.882,365.321h-0.024l-2.061,6.399h4.097L327.882,365.321z"/>
			<path fill="#898989" d="M350.232,377.806v-7.225c0-0.727-0.17-1.316-0.509-1.77c-0.34-0.452-0.792-0.679-1.358-0.679
				c-0.581,0-1.063,0.242-1.442,0.728c-0.38,0.484-0.569,1.091-0.569,1.818v7.127h-3.151v-7.176c0-0.484-0.032-0.881-0.097-1.188
				c-0.065-0.307-0.174-0.55-0.327-0.728c-0.154-0.178-0.352-0.303-0.595-0.376c-0.242-0.072-0.533-0.109-0.872-0.109
				c-1.277,0-1.915,0.776-1.915,2.328v7.248h-3.152v-11.927h2.958v1.745c0.403-0.792,0.889-1.333,1.454-1.624
				c0.566-0.291,1.245-0.437,2.037-0.437c0.403,0,0.764,0.032,1.078,0.097c0.315,0.064,0.598,0.174,0.849,0.327
				c0.251,0.154,0.489,0.352,0.715,0.594c0.227,0.243,0.453,0.534,0.68,0.873c0.322-0.662,0.751-1.143,1.284-1.442
				c0.533-0.299,1.18-0.448,1.939-0.448c0.598,0,1.147,0.101,1.648,0.303s0.93,0.485,1.285,0.849s0.634,0.788,0.836,1.272
				c0.202,0.485,0.304,1.003,0.304,1.552v8.267H350.232z"/>
			<path fill="#898989" d="M354.571,377.806v-16.291h3.104v5.915c0.889-1.244,2.068-1.866,3.539-1.866
				c0.776,0,1.467,0.149,2.073,0.448c0.605,0.3,1.118,0.724,1.539,1.272c0.42,0.55,0.739,1.2,0.958,1.952
				c0.218,0.751,0.327,1.58,0.327,2.484c0,1.002-0.13,1.899-0.389,2.691c-0.258,0.792-0.614,1.463-1.066,2.012
				c-0.452,0.55-0.998,0.97-1.636,1.261c-0.639,0.291-1.33,0.437-2.073,0.437c-1.487,0-2.594-0.59-3.321-1.77l-0.024,1.454H354.571z
				 M360.22,375.551c0.792,0,1.438-0.335,1.939-1.006c0.501-0.67,0.752-1.539,0.752-2.605c0-2.457-0.905-3.686-2.715-3.686
				c-1.762,0-2.643,1.294-2.643,3.879c0,1.019,0.254,1.843,0.764,2.473C358.826,375.236,359.46,375.551,360.22,375.551z"/>
			<path fill="#898989" d="M374.62,377.806c-0.097-0.307-0.161-0.662-0.193-1.066c-0.372,0.42-0.865,0.756-1.479,1.006
				s-1.325,0.376-2.133,0.376c-1.374,0-2.38-0.304-3.019-0.909c-0.639-0.606-0.957-1.395-0.957-2.364
				c0-0.856,0.137-1.539,0.412-2.048c0.274-0.509,0.654-0.909,1.139-1.2c0.485-0.291,1.063-0.505,1.733-0.643
				c0.671-0.137,1.402-0.263,2.194-0.376c0.792-0.112,1.325-0.262,1.6-0.448c0.275-0.186,0.412-0.488,0.412-0.909
				c0-0.388-0.182-0.69-0.545-0.909c-0.364-0.218-0.853-0.327-1.467-0.327c-0.728,0-1.248,0.162-1.563,0.485
				s-0.514,0.751-0.594,1.284h-2.934c0.016-0.613,0.117-1.179,0.303-1.696s0.485-0.962,0.897-1.334
				c0.412-0.371,0.949-0.658,1.611-0.86c0.663-0.202,1.471-0.303,2.425-0.303c0.938,0,1.733,0.105,2.388,0.315
				s1.18,0.513,1.576,0.908c0.396,0.396,0.683,0.89,0.86,1.479s0.267,1.257,0.267,2v7.539H374.62z M374.402,371.963
				c-0.162,0.162-0.396,0.291-0.703,0.389c-0.308,0.097-0.752,0.202-1.333,0.314c-0.905,0.179-1.527,0.404-1.867,0.679
				c-0.339,0.275-0.509,0.671-0.509,1.188c0,0.889,0.509,1.333,1.527,1.333c0.403,0,0.779-0.068,1.127-0.206
				c0.348-0.137,0.646-0.323,0.897-0.558c0.25-0.234,0.452-0.509,0.605-0.824s0.23-0.65,0.23-1.006L374.402,371.963z"/>
			<path fill="#898989" d="M385.989,369.49c-0.081-0.549-0.287-0.949-0.618-1.199c-0.331-0.251-0.836-0.376-1.515-0.376
				c-0.646,0-1.136,0.077-1.467,0.23s-0.497,0.416-0.497,0.787c0,0.324,0.166,0.582,0.497,0.776c0.331,0.193,0.813,0.38,1.442,0.558
				c1.034,0.291,1.907,0.537,2.618,0.739s1.28,0.44,1.709,0.715c0.428,0.275,0.735,0.618,0.921,1.03s0.279,0.966,0.279,1.661
				c0,1.066-0.444,1.951-1.333,2.654c-0.89,0.703-2.206,1.055-3.952,1.055c-0.856,0-1.632-0.098-2.327-0.291
				c-0.695-0.194-1.289-0.473-1.781-0.837c-0.493-0.363-0.873-0.8-1.14-1.309s-0.408-1.079-0.425-1.709h3.249
				c0,0.565,0.222,1.002,0.667,1.309c0.443,0.308,1.021,0.461,1.732,0.461c0.598,0,1.111-0.093,1.54-0.279
				c0.428-0.186,0.643-0.473,0.643-0.86c0-0.437-0.158-0.751-0.473-0.945c-0.315-0.194-0.797-0.363-1.443-0.509
				c-1.163-0.259-2.101-0.529-2.812-0.813c-0.712-0.282-1.265-0.594-1.661-0.934c-0.396-0.339-0.662-0.711-0.8-1.114
				c-0.138-0.404-0.206-0.856-0.206-1.358c0-0.452,0.093-0.88,0.279-1.284c0.186-0.404,0.48-0.76,0.885-1.067
				c0.403-0.307,0.929-0.553,1.575-0.739c0.646-0.186,1.438-0.278,2.376-0.278c1.713,0,2.966,0.348,3.758,1.042
				c0.792,0.695,1.228,1.657,1.309,2.885H385.989z"/>
			<path fill="#898989" d="M397.311,369.49c-0.081-0.549-0.287-0.949-0.618-1.199c-0.331-0.251-0.836-0.376-1.515-0.376
				c-0.646,0-1.136,0.077-1.467,0.23s-0.497,0.416-0.497,0.787c0,0.324,0.166,0.582,0.497,0.776c0.331,0.193,0.813,0.38,1.442,0.558
				c1.034,0.291,1.907,0.537,2.618,0.739s1.28,0.44,1.709,0.715c0.428,0.275,0.735,0.618,0.921,1.03s0.279,0.966,0.279,1.661
				c0,1.066-0.444,1.951-1.333,2.654c-0.89,0.703-2.206,1.055-3.952,1.055c-0.856,0-1.632-0.098-2.327-0.291
				c-0.695-0.194-1.289-0.473-1.781-0.837c-0.493-0.363-0.873-0.8-1.14-1.309s-0.408-1.079-0.425-1.709h3.249
				c0,0.565,0.222,1.002,0.667,1.309c0.443,0.308,1.021,0.461,1.732,0.461c0.598,0,1.111-0.093,1.54-0.279
				c0.428-0.186,0.643-0.473,0.643-0.86c0-0.437-0.158-0.751-0.473-0.945c-0.315-0.194-0.797-0.363-1.443-0.509
				c-1.163-0.259-2.101-0.529-2.812-0.813c-0.712-0.282-1.265-0.594-1.661-0.934c-0.396-0.339-0.662-0.711-0.8-1.114
				c-0.138-0.404-0.206-0.856-0.206-1.358c0-0.452,0.093-0.88,0.279-1.284c0.186-0.404,0.48-0.76,0.885-1.067
				c0.403-0.307,0.929-0.553,1.575-0.739c0.646-0.186,1.438-0.278,2.376-0.278c1.713,0,2.966,0.348,3.758,1.042
				c0.792,0.695,1.228,1.657,1.309,2.885H397.311z"/>
			<path fill="#898989" d="M408.922,377.806c-0.097-0.307-0.161-0.662-0.193-1.066c-0.372,0.42-0.865,0.756-1.479,1.006
				s-1.325,0.376-2.133,0.376c-1.374,0-2.38-0.304-3.019-0.909c-0.639-0.606-0.957-1.395-0.957-2.364
				c0-0.856,0.137-1.539,0.412-2.048c0.274-0.509,0.654-0.909,1.139-1.2c0.485-0.291,1.063-0.505,1.733-0.643
				c0.671-0.137,1.402-0.263,2.194-0.376c0.792-0.112,1.325-0.262,1.6-0.448c0.275-0.186,0.412-0.488,0.412-0.909
				c0-0.388-0.182-0.69-0.545-0.909c-0.364-0.218-0.853-0.327-1.467-0.327c-0.728,0-1.248,0.162-1.563,0.485
				s-0.514,0.751-0.594,1.284h-2.934c0.016-0.613,0.117-1.179,0.303-1.696s0.485-0.962,0.897-1.334
				c0.412-0.371,0.949-0.658,1.611-0.86c0.663-0.202,1.471-0.303,2.425-0.303c0.938,0,1.733,0.105,2.388,0.315
				s1.18,0.513,1.576,0.908c0.396,0.396,0.683,0.89,0.86,1.479s0.267,1.257,0.267,2v7.539H408.922z M408.704,371.963
				c-0.162,0.162-0.396,0.291-0.703,0.389c-0.308,0.097-0.752,0.202-1.333,0.314c-0.905,0.179-1.527,0.404-1.867,0.679
				c-0.339,0.275-0.509,0.671-0.509,1.188c0,0.889,0.509,1.333,1.527,1.333c0.403,0,0.779-0.068,1.127-0.206
				c0.348-0.137,0.646-0.323,0.897-0.558c0.25-0.234,0.452-0.509,0.605-0.824s0.23-0.65,0.23-1.006L408.704,371.963z"/>
			<path fill="#898989" d="M421.382,377.806l-0.023-1.454c-0.728,1.18-1.835,1.77-3.321,1.77c-0.76,0-1.455-0.146-2.085-0.437
				c-0.631-0.291-1.172-0.711-1.624-1.261c-0.453-0.549-0.809-1.22-1.067-2.012s-0.388-1.689-0.388-2.691
				c0-0.904,0.109-1.733,0.327-2.484c0.219-0.752,0.537-1.402,0.958-1.952c0.42-0.549,0.934-0.973,1.539-1.272
				c0.606-0.299,1.297-0.448,2.073-0.448c1.47,0,2.65,0.622,3.539,1.866v-5.915h3.103v16.291H421.382z M418.764,375.551
				c0.76,0,1.395-0.314,1.903-0.945c0.509-0.63,0.764-1.454,0.764-2.473c0-2.585-0.881-3.879-2.643-3.879
				c-1.81,0-2.715,1.229-2.715,3.686c0,1.066,0.25,1.936,0.752,2.605C417.325,375.216,417.972,375.551,418.764,375.551z"/>
			<path fill="#898989" d="M431.54,378.121c-0.97,0-1.835-0.154-2.594-0.461c-0.76-0.307-1.402-0.735-1.928-1.285
				c-0.525-0.549-0.925-1.212-1.2-1.987c-0.274-0.776-0.412-1.624-0.412-2.546c0-0.937,0.142-1.794,0.425-2.569
				c0.282-0.775,0.69-1.438,1.224-1.988c0.534-0.549,1.176-0.973,1.928-1.272c0.751-0.299,1.604-0.448,2.558-0.448
				c0.937,0,1.777,0.149,2.521,0.448c0.743,0.3,1.377,0.72,1.902,1.261c0.525,0.542,0.93,1.2,1.212,1.976
				c0.283,0.775,0.425,1.641,0.425,2.594c0,0.954-0.142,1.814-0.425,2.582c-0.282,0.768-0.687,1.427-1.212,1.976
				c-0.525,0.55-1.163,0.974-1.915,1.272C433.298,377.972,432.461,378.121,431.54,378.121z M431.54,375.479
				c1.923,0,2.885-1.212,2.885-3.637c0-2.407-0.962-3.612-2.885-3.612c-1.924,0-2.885,1.205-2.885,3.612
				C428.655,374.267,429.616,375.479,431.54,375.479z"/>
			<path fill="#898989" d="M438.618,377.806v-11.927h2.958v1.43c0.258-0.403,0.529-0.719,0.813-0.945
				c0.282-0.227,0.573-0.4,0.872-0.521s0.603-0.197,0.909-0.23c0.307-0.031,0.622-0.048,0.945-0.048h0.412v3.224
				c-0.291-0.048-0.581-0.072-0.872-0.072c-1.924,0-2.885,0.962-2.885,2.885v6.206H438.618z"/>
		</g>
	</g>
	<g>
		<g id="man_1_">
			<g>
				<g>
					<path fill="#FFCAAC" d="M688.783,233.84c-41.625,41.624-109.116,41.624-150.742,0c-41.627-41.626-41.627-109.116,0-150.743
						c41.626-41.625,109.117-41.625,150.742,0C730.406,124.724,730.406,192.214,688.783,233.84z"/>
				</g>
				<g id="man_2_">
					<g id="man_3_">
						<g>
							<polygon fill="#F6CCB8" points="628.842,148.827 625.18,147.14 625.18,134.508 601.658,134.508 601.658,147.14 
								597.979,148.729 598.957,181.768 601.658,181.768 601.658,186.834 625.18,186.834 625.18,181.768 627.865,181.768 							"/>
							<polygon fill="#F6CCB8" points="601.658,134.508 601.658,144.901 625.18,146.38 625.18,134.508 							"/>
						</g>
						<g>
							<g>
								<g>
									<path fill="#FFFFFF" d="M629.174,148.907l-0.873,3.281c-1.514,4.332-5.393,11.417-14.596,11.417
										c-10.387,0-14.351-9.019-15.582-12.927l-0.471-1.771c-19.131,7.187-13.262,67.097-13.262,67.097l-0.121,49.766
										l29.191,0.004l30.756-0.004l-0.803-49.766C643.414,216.004,648.305,156.094,629.174,148.907z"/>
									<polygon fill="#F15D44" points="619.072,161.986 616.813,166.311 609.943,166.311 607.75,161.986 613.412,157.361 
																			"/>
									<path fill="#E6E7E8" d="M613.412,157.361l-7.232,7.615l-12.371-14.757c0.021-0.01,7.724-3.844,7.724-3.844l2.901,2.688
										L613.412,157.361z"/>
									<polygon fill="#E6E7E8" points="625.301,146.38 613.413,157.361 620.648,164.98 633.014,150.213 									"/>
									<polygon fill="#F15D44" points="616.813,167.346 619.613,257.393 613.412,264.248 607.213,257.393 609.943,167.346 
																			"/>
								</g>
								<path fill="#42404D" d="M677.768,218.137c1.801-5.498,1.773-11.424-0.082-16.904c-3.6-10.623-10.477-32.971-12.398-37.23
									c-4.313-9.4-18.199-9.049-35.545-15.015c-0.617-0.219-1.246-0.435-1.873-0.66l0,0c-1.021,5.959-14.457,63.55-14.457,63.55
									s-13.436-57.591-14.456-63.55h-0.001c-0.628,0.226-1.256,0.441-1.872,0.66c-17.349,5.966-31.233,5.615-35.546,15.015
									c-1.924,4.258-8.798,26.604-12.397,37.23c-1.858,5.479-1.884,11.408-0.083,16.906c3.979,12.146,12.15,28.65,15.678,33.893
									c3.139,4.664,8.624,6.352,12.592,5.041c-0.543,2.514-0.717,4.373-0.148,4.373c0,0,17.59,0,36.232,0l0.002-0.234l0.001,0.234
									c18.642,0,36.234,0,36.234,0c0.566,0,0.394-1.859-0.147-4.373c3.967,1.311,9.451-0.377,12.589-5.041
									C665.617,246.789,673.789,230.277,677.768,218.137z"/>
								<g>
									<g>
										<polygon fill="#4F4C4D" points="589.145,150.26 589.527,161.5 595.139,166.115 590.772,172.088 613.266,211.877 
											599.042,145.17 										"/>
									</g>
									<g>
										<polygon fill="#4F4C4D" points="637.68,150.26 637.297,161.5 631.683,166.115 636.052,172.088 613.561,211.877 
											627.783,145.17 										"/>
									</g>
								</g>
							</g>
						</g>
						<g id="man_4_">
							<g>
								<path fill="#F6CCB8" d="M639.081,100.993l0.796-10.351c0-13.534-12.937-24.502-26.464-24.502
									c-13.532,0-26.461,10.968-26.461,24.502l0.798,10.341c-0.758,0.183-1.441,0.531-2.014,1.018
									c-1.059,0.903-1.725,2.235-1.725,3.734v5.098c0,2.694,2.17,4.879,4.871,4.897c0,12.781,15.357,24.898,24.53,24.898
									c9.177,0,24.534-12.115,24.534-24.896c2.688-0.021,4.865-2.203,4.865-4.899v-5.095
									C642.813,103.436,641.221,101.521,639.081,100.993z"/>
								<path opacity="0.8" fill="#F6CCB8" d="M639.081,100.993l0.796-10.351c0-13.534-12.937-24.502-26.464-24.502
									c-0.003,0-0.003,34.794-0.003,34.794c-3.575,7.603-5.882,18.623-5.882,18.623h5.882v21.071
									c9.184-0.004,24.537-12.117,24.537-24.896c2.688-0.021,4.865-2.203,4.865-4.899v-5.095
									C642.813,103.436,641.221,101.521,639.081,100.993z"/>
								<g>
									<g>
										<circle fill="#F7CDB9" cx="602.226" cy="106.713" r="3.87"/>
										<circle fill="#3C2415" cx="602.226" cy="105.732" r="3.87"/>
										<circle fill="#FFFFFF" cx="603.539" cy="107.465" r="0.967"/>
									</g>
									<g>
										<circle fill="#F7CDB9" cx="624.768" cy="106.713" r="3.871"/>
										<circle fill="#3C2415" cx="624.768" cy="105.732" r="3.871"/>
										<circle fill="#FFFFFF" cx="626.08" cy="107.465" r="0.968"/>
									</g>
								</g>
							</g>
							<path fill="#4F3C30" d="M603.486,59.745c-26.535-8.821-21.439,41.869-18.805,50.307c0.48,1.542,2.544,3.921,2.554,3.921
								c0.806,1.505-2.125,30.317,26.212,30.317c28.338,0,25.407-28.813,26.211-30.317c0.012,0,2.072-2.379,2.553-3.921
								C644.849,101.613,652.906,44.555,603.486,59.745z M636.463,113.128c0,3.215-1.977,7.974-4.78,10.083
								c-1.206,0.908-2.819,1.057-4.203,0.463c-2.339-0.999-7.564-1.896-14.032-1.896s-11.694,0.897-14.033,1.896
								c-1.385,0.594-2.998,0.445-4.201-0.463c-2.806-2.11-4.783-6.869-4.783-10.083c0,0-3.902-14.078-0.966-24.421
								c1.452-5.121,7.729-8.005,12.896-6.713c3.747,0.939,7.639,1.251,11.088,1.26c3.449-0.008,7.339-0.321,11.092-1.26
								c5.162-1.292,11.439,1.593,12.891,6.713C640.369,99.05,636.463,113.128,636.463,113.128z"/>
							<path fill="#F6CCB8" d="M607.008,126.392h12.818c0.402,0,0.607,0.502,0.309,0.773c-0.918,0.833-2.906,2.035-6.719,2.035
								c-3.809,0-5.797-1.203-6.715-2.035C606.4,126.894,606.603,126.392,607.008,126.392z"/>
							<path fill="#43414D" d="M640.021,98.848h-5.305c-1.676-0.878-4.023-1.438-7.307-1.438c-5.461,0-9.165,1.045-11.069,3.089
								c-0.898-0.495-2.244-1.056-3.761-1.056c-1.506,0-2.838,0.553-3.736,1.042c-1.908-2.034-5.607-3.075-11.057-3.075
								c-3.285,0-5.632,0.56-7.306,1.438h-5.345v3.822l1.754,0.613c-0.18,0.718-0.252,1.443-0.252,2.145
								c0,5.764,1.824,9.1,11.148,9.1c7.875,0,10.999-2.245,12.378-8.901c0.169-0.814,0.187-1.59,0.074-2.32
								c0.435-0.276,1.152-0.519,2.341-0.519c1.217,0,1.945,0.254,2.375,0.542c-0.107,0.722-0.09,1.493,0.078,2.297
								c1.378,6.656,4.502,8.901,12.377,8.901c9.325,0,11.148-3.336,11.148-9.1c0-0.705-0.074-1.436-0.256-2.155l1.719-0.602V98.848
								z M608.246,105.228c-1.193,5.762-3.443,7.34-10.459,7.34c-8.547,0-9.188-2.828-9.188-7.14c0-1.498,0-6.058,9.188-6.058
								c6.338,0,8.837,1.434,9.816,2.64C608.298,102.857,608.513,103.942,608.246,105.228z M627.41,112.567
								c-7.016,0-9.266-1.578-10.459-7.34c-0.266-1.285-0.051-2.37,0.643-3.218c0.98-1.206,3.477-2.64,9.816-2.64
								c9.189,0,9.189,4.56,9.189,6.058C636.6,109.74,635.957,112.567,627.41,112.567z"/>
						</g>
					</g>
					<path id="desk_3_" fill="#686671" d="M674.944,257.074H551.881c-4.873,0-8.82,3.949-8.82,8.82s3.947,8.822,8.82,8.822h123.063
						c4.872,0,8.821-3.951,8.821-8.822S679.816,257.074,674.944,257.074z"/>
					<g id="computer_3_">
						<path fill="#ADADAE" d="M660.221,257.17h-93.617c-1.213,0-2.195-0.984-2.195-2.193c0-1.215,0.982-2.197,2.195-2.197h93.617
							c1.211,0,2.195,0.982,2.195,2.197C662.416,256.186,661.432,257.17,660.221,257.17z"/>
						<path fill="#E1E1E1" d="M656.582,252.939h-86.338c-3.224,0-5.836-2.613-5.836-5.834v-59.482c0-3.223,2.612-5.836,5.836-5.836
							h86.338c3.221,0,5.834,2.613,5.834,5.836v59.482C662.416,250.326,659.803,252.939,656.582,252.939z"/>
						<circle opacity="0.5" fill="#FFFFFF" cx="613.412" cy="215.105" r="8.014"/>
						<path opacity="0.2" fill="#FFFFFF" d="M640.129,181.787h-71.637c-2.256,0-4.084,1.828-4.084,4.086v62.98
							c0,2.258,1.828,4.086,4.084,4.086h14.121C585.503,219.027,608.872,191.059,640.129,181.787z"/>
					</g>
				</g>
			</g>
		</g>
		<g>
			<path fill="#EDEDED" d="M524.828,304.115h9.198v3.657h-1.718v12.024h1.718v3.685h-9.198v-3.685h1.746v-12.024h-1.746V304.115z"/>
			<path fill="#EDEDED" d="M543.64,323.481h-8.229v-3.63h1.164v-6.538h-1.164v-3.657h5.236l0.609,1.635
				c0.111-0.129,0.272-0.309,0.485-0.54c0.212-0.23,0.466-0.457,0.762-0.679c0.295-0.222,0.628-0.411,0.997-0.568
				c0.37-0.156,0.776-0.235,1.22-0.235c0.701,0,1.288,0.074,1.759,0.222c0.472,0.148,0.863,0.323,1.178,0.526
				c0.313,0.203,0.563,0.42,0.748,0.651c0.185,0.23,0.332,0.429,0.443,0.596c0.425-0.48,0.97-0.933,1.635-1.357
				s1.478-0.638,2.438-0.638c1.127,0,2.027,0.189,2.701,0.568c0.675,0.378,1.196,0.877,1.565,1.496
				c0.369,0.618,0.614,1.325,0.734,2.119s0.181,1.616,0.181,2.466v3.823h1.357v3.74h-7.037v-6.788c0-0.185,0.004-0.378,0.014-0.582
				c0.009-0.202,0.014-0.415,0.014-0.637c0-0.277-0.014-0.55-0.042-0.817c-0.027-0.268-0.078-0.503-0.152-0.706
				c-0.073-0.203-0.18-0.37-0.318-0.499s-0.328-0.194-0.567-0.194c-0.592,0-0.984,0.189-1.178,0.568
				c-0.194,0.379-0.291,0.863-0.291,1.454v4.488h1.662v3.713h-7.176v-7.064c0-1.127-0.055-1.935-0.166-2.425
				c-0.11-0.489-0.443-0.734-0.997-0.734c-0.443,0-0.762,0.135-0.956,0.402s-0.291,0.688-0.291,1.261v4.931h1.662V323.481z"/>
			<path fill="#EDEDED" d="M560.567,325.504h1.164v-12.19h-1.164v-3.685h6.345l0.471,0.97c0.129-0.093,0.301-0.208,0.513-0.347
				s0.457-0.268,0.734-0.388s0.591-0.226,0.942-0.318c0.351-0.093,0.738-0.139,1.163-0.139c1.071,0,2.018,0.193,2.84,0.582
				c0.822,0.388,1.505,0.914,2.051,1.579c0.544,0.665,0.955,1.437,1.232,2.313s0.416,1.806,0.416,2.784
				c0,1.108-0.162,2.102-0.485,2.979s-0.767,1.62-1.33,2.23c-0.563,0.609-1.232,1.08-2.009,1.412
				c-0.775,0.333-1.606,0.499-2.493,0.499c-0.572,0-1.076-0.046-1.51-0.139c-0.435-0.093-0.794-0.203-1.08-0.332
				c-0.287-0.129-0.513-0.254-0.68-0.374c-0.166-0.12-0.276-0.198-0.332-0.235v2.798h1.496v3.63h-8.284V325.504z M571.317,316.722
				c0-0.406-0.046-0.817-0.139-1.233c-0.093-0.415-0.227-0.78-0.401-1.094c-0.176-0.314-0.388-0.573-0.638-0.776
				c-0.249-0.203-0.521-0.305-0.817-0.305c-0.517,0-0.975,0.287-1.371,0.859c-0.397,0.572-0.596,1.357-0.596,2.354
				c0,0.518,0.046,0.997,0.139,1.44c0.092,0.443,0.226,0.831,0.401,1.164c0.176,0.332,0.388,0.591,0.638,0.775
				c0.249,0.186,0.521,0.277,0.817,0.277c0.591,0,1.066-0.313,1.427-0.942C571.138,318.615,571.317,317.774,571.317,316.722z"/>
			<path fill="#EDEDED" d="M586.084,323.481h-7.841v-3.63h1.22v-6.621h-1.191v-3.602h5.208l0.831,1.773
				c0.185-0.333,0.379-0.646,0.582-0.942c0.203-0.295,0.462-0.559,0.776-0.79c0.313-0.23,0.701-0.41,1.163-0.54
				c0.462-0.129,1.053-0.193,1.773-0.193v4.986c-1.257,0-2.222,0.208-2.896,0.624c-0.675,0.415-1.011,1.232-1.011,2.451v2.854h1.385
				V323.481z"/>
			<path fill="#EDEDED" d="M603.621,321.569c-1.034,0.887-2.124,1.511-3.27,1.87c-1.145,0.36-2.438,0.541-3.878,0.541
				c-0.869,0-1.736-0.144-2.604-0.43s-1.648-0.729-2.341-1.33c-0.693-0.6-1.261-1.376-1.704-2.327s-0.665-2.092-0.665-3.422
				c0-1.126,0.193-2.138,0.582-3.033c0.388-0.896,0.914-1.658,1.579-2.286s1.449-1.104,2.354-1.427s1.884-0.484,2.937-0.484
				c1.146,0,2.156,0.166,3.034,0.498c0.877,0.333,1.611,0.795,2.202,1.386c0.592,0.591,1.034,1.288,1.33,2.092
				s0.443,1.676,0.443,2.618c0,0.369-0.027,0.734-0.083,1.094c-0.056,0.36-0.139,0.698-0.249,1.012h-8.728
				c0.037,0.185,0.097,0.406,0.18,0.665c0.084,0.259,0.227,0.508,0.43,0.748s0.48,0.443,0.831,0.609s0.822,0.249,1.413,0.249
				c0.24,0,0.503-0.009,0.79-0.027c0.286-0.019,0.596-0.073,0.928-0.166c0.333-0.093,0.684-0.227,1.053-0.402
				c0.369-0.175,0.739-0.42,1.108-0.733L603.621,321.569z M596.778,312.981c-0.426,0-0.771,0.083-1.039,0.249
				c-0.269,0.166-0.48,0.365-0.638,0.596c-0.157,0.231-0.268,0.476-0.332,0.734c-0.065,0.259-0.106,0.471-0.125,0.637h4.184
				c0-0.258-0.027-0.521-0.083-0.789s-0.152-0.508-0.291-0.721c-0.139-0.212-0.342-0.383-0.609-0.513
				C597.577,313.046,597.222,312.981,596.778,312.981z"/>
			<path fill="#EDEDED" d="M604.452,323.481v-4.987h3.712c0,0.37,0.115,0.675,0.347,0.915c0.23,0.24,0.503,0.429,0.817,0.567
				c0.313,0.139,0.637,0.235,0.97,0.291c0.332,0.056,0.6,0.083,0.803,0.083c0.277,0,0.55-0.06,0.817-0.18s0.402-0.374,0.402-0.762
				c0-0.259-0.189-0.467-0.568-0.624c-0.379-0.156-0.858-0.309-1.44-0.457c-0.582-0.147-1.205-0.323-1.87-0.526
				s-1.288-0.484-1.87-0.845s-1.063-0.831-1.44-1.413c-0.379-0.582-0.568-1.325-0.568-2.23c0-0.701,0.161-1.307,0.485-1.814
				c0.322-0.508,0.729-0.924,1.219-1.247c0.489-0.323,1.016-0.563,1.579-0.72c0.563-0.157,1.095-0.236,1.593-0.236
				c0.942,0,1.792,0.213,2.549,0.638c0.758,0.425,1.284,0.933,1.579,1.523l0.222-1.828h3.408v4.986h-3.602
				c0-0.295-0.083-0.567-0.25-0.816c-0.166-0.25-0.383-0.472-0.65-0.665c-0.269-0.194-0.568-0.347-0.9-0.457
				c-0.333-0.111-0.675-0.167-1.025-0.167c-0.296,0-0.55,0.079-0.762,0.235c-0.213,0.157-0.318,0.412-0.318,0.763
				c0,0.313,0.193,0.563,0.581,0.748c0.389,0.185,0.873,0.364,1.455,0.54s1.214,0.369,1.897,0.582
				c0.684,0.212,1.316,0.494,1.898,0.845c0.581,0.351,1.066,0.799,1.454,1.344s0.582,1.242,0.582,2.092
				c0,0.646-0.144,1.229-0.43,1.745c-0.286,0.518-0.665,0.956-1.136,1.316s-1.021,0.633-1.648,0.817s-1.274,0.276-1.939,0.276
				c-0.997,0-1.87-0.203-2.618-0.609s-1.288-0.877-1.621-1.413l-0.249,1.69H604.452z"/>
			<path fill="#EDEDED" d="M618.527,323.481v-4.987h3.712c0,0.37,0.115,0.675,0.347,0.915c0.23,0.24,0.503,0.429,0.817,0.567
				c0.313,0.139,0.637,0.235,0.97,0.291c0.332,0.056,0.6,0.083,0.803,0.083c0.277,0,0.55-0.06,0.817-0.18s0.402-0.374,0.402-0.762
				c0-0.259-0.189-0.467-0.568-0.624c-0.379-0.156-0.858-0.309-1.44-0.457c-0.582-0.147-1.205-0.323-1.87-0.526
				s-1.288-0.484-1.87-0.845s-1.063-0.831-1.44-1.413c-0.379-0.582-0.568-1.325-0.568-2.23c0-0.701,0.161-1.307,0.485-1.814
				c0.322-0.508,0.729-0.924,1.219-1.247c0.489-0.323,1.016-0.563,1.579-0.72c0.563-0.157,1.095-0.236,1.593-0.236
				c0.942,0,1.792,0.213,2.549,0.638c0.758,0.425,1.284,0.933,1.579,1.523l0.222-1.828h3.408v4.986h-3.602
				c0-0.295-0.083-0.567-0.25-0.816c-0.166-0.25-0.383-0.472-0.65-0.665c-0.269-0.194-0.568-0.347-0.9-0.457
				c-0.333-0.111-0.675-0.167-1.025-0.167c-0.296,0-0.55,0.079-0.762,0.235c-0.213,0.157-0.318,0.412-0.318,0.763
				c0,0.313,0.193,0.563,0.581,0.748c0.389,0.185,0.873,0.364,1.455,0.54s1.214,0.369,1.897,0.582
				c0.684,0.212,1.316,0.494,1.898,0.845c0.581,0.351,1.066,0.799,1.454,1.344s0.582,1.242,0.582,2.092
				c0,0.646-0.144,1.229-0.43,1.745c-0.286,0.518-0.665,0.956-1.136,1.316s-1.021,0.633-1.648,0.817s-1.274,0.276-1.939,0.276
				c-0.997,0-1.87-0.203-2.618-0.609s-1.288-0.877-1.621-1.413l-0.249,1.69H618.527z"/>
			<path fill="#EDEDED" d="M640.636,323.481h-7.758v-3.63h1.164v-6.621h-1.164v-3.602h6.428v10.223h1.33V323.481z M633.654,305.584
				c0-0.314,0.064-0.638,0.193-0.97c0.129-0.333,0.318-0.638,0.568-0.914c0.249-0.277,0.563-0.504,0.941-0.68
				c0.379-0.175,0.809-0.263,1.289-0.263c0.479,0,0.909,0.088,1.288,0.263c0.378,0.176,0.697,0.402,0.956,0.68
				c0.258,0.276,0.457,0.581,0.596,0.914c0.138,0.332,0.207,0.655,0.207,0.97c0,0.775-0.259,1.437-0.775,1.98
				c-0.518,0.545-1.274,0.817-2.271,0.817c-0.443,0-0.846-0.083-1.205-0.249c-0.36-0.166-0.675-0.383-0.942-0.651
				c-0.268-0.268-0.476-0.567-0.623-0.9C633.728,306.249,633.654,305.916,633.654,305.584z"/>
			<path fill="#EDEDED" d="M649.361,323.842c-0.997,0-1.962-0.152-2.895-0.457c-0.934-0.305-1.76-0.762-2.479-1.372
				c-0.721-0.609-1.294-1.375-1.718-2.299c-0.426-0.924-0.638-1.995-0.638-3.214c0-1.164,0.217-2.193,0.651-3.09
				c0.434-0.896,1.006-1.648,1.718-2.258c0.711-0.609,1.523-1.071,2.438-1.385c0.915-0.314,1.843-0.472,2.785-0.472
				c1.089,0,2.105,0.171,3.047,0.513c0.942,0.342,1.76,0.831,2.452,1.469c0.692,0.637,1.233,1.413,1.621,2.327
				s0.582,1.953,0.582,3.117c0,1.146-0.199,2.156-0.596,3.033c-0.397,0.878-0.938,1.621-1.621,2.23
				c-0.684,0.609-1.482,1.071-2.396,1.386C651.398,323.685,650.414,323.842,649.361,323.842z M649.361,320.295
				c0.296,0,0.559-0.092,0.79-0.276c0.23-0.185,0.43-0.443,0.596-0.776c0.166-0.332,0.291-0.725,0.374-1.177
				c0.083-0.453,0.125-0.938,0.125-1.455c0-0.517-0.047-1.002-0.139-1.454c-0.093-0.453-0.222-0.846-0.388-1.178
				c-0.167-0.332-0.374-0.596-0.624-0.79c-0.249-0.193-0.54-0.29-0.872-0.29c-0.277,0-0.531,0.092-0.763,0.276
				c-0.23,0.186-0.429,0.443-0.596,0.776c-0.166,0.332-0.3,0.72-0.401,1.163s-0.152,0.914-0.152,1.413
				c0,1.146,0.194,2.06,0.582,2.743S648.771,320.295,649.361,320.295z"/>
			<path fill="#EDEDED" d="M666.456,323.481h-8.533v-3.63h1.164v-6.621h-1.164v-3.602h5.901l0.638,1.718
				c0.479-0.646,1.039-1.178,1.676-1.594c0.638-0.415,1.399-0.623,2.286-0.623c1.07,0,1.935,0.181,2.59,0.54
				c0.655,0.36,1.164,0.831,1.524,1.413c0.359,0.582,0.6,1.238,0.72,1.968s0.181,1.454,0.181,2.175v4.626h1.302v3.63h-6.981v-7.563
				c0-0.24-0.005-0.508-0.014-0.804c-0.01-0.295-0.061-0.572-0.152-0.831c-0.093-0.259-0.245-0.48-0.458-0.665
				c-0.212-0.185-0.521-0.277-0.928-0.277c-0.352,0-0.642,0.079-0.873,0.236c-0.23,0.157-0.411,0.359-0.54,0.609
				c-0.129,0.249-0.217,0.526-0.263,0.831c-0.047,0.305-0.069,0.605-0.069,0.9v3.934h1.994V323.481z"/>
			<path fill="#EDEDED" d="M683.605,323.481h-7.758v-3.63h1.164v-6.621h-1.164v-3.602h6.428v10.223h1.33V323.481z M676.624,305.584
				c0-0.314,0.064-0.638,0.193-0.97c0.129-0.333,0.318-0.638,0.568-0.914c0.249-0.277,0.563-0.504,0.941-0.68
				c0.379-0.175,0.809-0.263,1.289-0.263c0.479,0,0.909,0.088,1.288,0.263c0.378,0.176,0.697,0.402,0.956,0.68
				c0.258,0.276,0.457,0.581,0.596,0.914c0.138,0.332,0.207,0.655,0.207,0.97c0,0.775-0.259,1.437-0.775,1.98
				c-0.518,0.545-1.274,0.817-2.271,0.817c-0.443,0-0.846-0.083-1.205-0.249c-0.36-0.166-0.675-0.383-0.942-0.651
				c-0.268-0.268-0.476-0.567-0.623-0.9C676.697,306.249,676.624,305.916,676.624,305.584z"/>
			<path fill="#EDEDED" d="M684.714,323.481v-4.987h3.712c0,0.37,0.115,0.675,0.347,0.915c0.23,0.24,0.503,0.429,0.817,0.567
				c0.313,0.139,0.637,0.235,0.97,0.291c0.332,0.056,0.6,0.083,0.803,0.083c0.277,0,0.55-0.06,0.817-0.18s0.402-0.374,0.402-0.762
				c0-0.259-0.189-0.467-0.568-0.624c-0.379-0.156-0.858-0.309-1.44-0.457c-0.582-0.147-1.205-0.323-1.87-0.526
				s-1.288-0.484-1.87-0.845s-1.063-0.831-1.44-1.413c-0.379-0.582-0.568-1.325-0.568-2.23c0-0.701,0.161-1.307,0.485-1.814
				c0.322-0.508,0.729-0.924,1.219-1.247c0.489-0.323,1.016-0.563,1.579-0.72c0.563-0.157,1.095-0.236,1.593-0.236
				c0.942,0,1.792,0.213,2.549,0.638c0.758,0.425,1.284,0.933,1.579,1.523l0.222-1.828h3.408v4.986h-3.602
				c0-0.295-0.083-0.567-0.25-0.816c-0.166-0.25-0.383-0.472-0.65-0.665c-0.269-0.194-0.568-0.347-0.9-0.457
				c-0.333-0.111-0.675-0.167-1.025-0.167c-0.296,0-0.55,0.079-0.762,0.235c-0.213,0.157-0.318,0.412-0.318,0.763
				c0,0.313,0.193,0.563,0.581,0.748c0.389,0.185,0.873,0.364,1.455,0.54s1.214,0.369,1.897,0.582
				c0.684,0.212,1.316,0.494,1.898,0.845c0.581,0.351,1.066,0.799,1.454,1.344s0.582,1.242,0.582,2.092
				c0,0.646-0.144,1.229-0.43,1.745c-0.286,0.518-0.665,0.956-1.136,1.316s-1.021,0.633-1.648,0.817s-1.274,0.276-1.939,0.276
				c-0.997,0-1.87-0.203-2.618-0.609s-1.288-0.877-1.621-1.413l-0.249,1.69H684.714z"/>
			<path fill="#EDEDED" d="M698.788,309.629h1.496v-2.549l5.098-1.635v4.184h2.632v3.602h-2.632v4.932
				c0,0.129-0.005,0.259-0.014,0.388c-0.01,0.13-0.015,0.268-0.015,0.416c0,0.369,0.051,0.697,0.152,0.983s0.355,0.43,0.763,0.43
				c0.184,0,0.457-0.051,0.816-0.153c0.36-0.101,0.67-0.207,0.929-0.318v3.547c-0.203,0.092-0.462,0.17-0.775,0.235
				c-0.314,0.064-0.638,0.115-0.97,0.152c-0.333,0.036-0.643,0.069-0.929,0.097s-0.513,0.042-0.679,0.042
				c-1.034,0-1.843-0.139-2.424-0.416c-0.582-0.277-1.012-0.665-1.289-1.163c-0.276-0.499-0.452-1.108-0.526-1.829
				c-0.073-0.721-0.12-1.523-0.138-2.41v-4.932h-1.496V309.629z"/>
		</g>
		<g>
			<path fill="#898989" d="M567.792,354.564v-16.097h6.23c1.082,0,2.085,0.182,3.006,0.545c0.921,0.364,1.709,0.885,2.363,1.564
				c0.655,0.679,1.168,1.503,1.54,2.473c0.371,0.97,0.558,2.068,0.558,3.297s-0.166,2.348-0.497,3.357
				c-0.332,1.01-0.805,1.875-1.419,2.594c-0.614,0.72-1.35,1.276-2.206,1.673s-1.802,0.594-2.836,0.594H567.792z M573.853,351.825
				c1.471,0,2.537-0.457,3.2-1.37c0.662-0.912,0.994-2.282,0.994-4.108c0-0.905-0.081-1.681-0.243-2.327
				c-0.161-0.646-0.424-1.176-0.787-1.588c-0.364-0.412-0.829-0.711-1.395-0.897c-0.565-0.186-1.253-0.278-2.061-0.278h-2.497
				v10.569H573.853z"/>
			<path fill="#898989" d="M585.343,349.425c0.049,0.905,0.312,1.625,0.788,2.158s1.104,0.8,1.879,0.8
				c0.518,0,0.974-0.117,1.37-0.352c0.396-0.234,0.65-0.562,0.764-0.981h3.248c-0.372,1.228-1.019,2.174-1.939,2.836
				c-0.921,0.663-2.021,0.994-3.297,0.994c-3.976,0-5.964-2.166-5.964-6.497c0-0.921,0.13-1.754,0.389-2.497
				c0.258-0.743,0.634-1.382,1.127-1.915c0.492-0.533,1.095-0.941,1.806-1.225c0.711-0.282,1.527-0.424,2.448-0.424
				c1.843,0,3.237,0.59,4.183,1.77s1.418,2.958,1.418,5.333H585.343z M590.313,347.438c-0.016-0.437-0.093-0.82-0.229-1.151
				c-0.138-0.331-0.319-0.606-0.546-0.824c-0.227-0.219-0.484-0.38-0.775-0.485c-0.291-0.104-0.591-0.157-0.897-0.157
				c-0.63,0-1.176,0.23-1.636,0.69c-0.461,0.461-0.724,1.104-0.788,1.928H590.313z"/>
			<path fill="#898989" d="M601.706,346.249c-0.081-0.549-0.287-0.949-0.618-1.199c-0.331-0.251-0.836-0.376-1.515-0.376
				c-0.646,0-1.136,0.077-1.467,0.23s-0.497,0.416-0.497,0.787c0,0.324,0.166,0.582,0.497,0.776c0.331,0.193,0.813,0.38,1.442,0.558
				c1.034,0.291,1.907,0.537,2.618,0.739s1.28,0.44,1.709,0.715c0.428,0.275,0.735,0.618,0.921,1.03s0.279,0.966,0.279,1.661
				c0,1.066-0.444,1.951-1.333,2.654c-0.89,0.703-2.206,1.055-3.952,1.055c-0.856,0-1.632-0.098-2.327-0.291
				c-0.695-0.194-1.289-0.473-1.781-0.837c-0.493-0.363-0.873-0.8-1.14-1.309s-0.408-1.079-0.425-1.709h3.249
				c0,0.565,0.222,1.002,0.667,1.309c0.443,0.308,1.021,0.461,1.732,0.461c0.598,0,1.111-0.093,1.54-0.279
				c0.428-0.186,0.643-0.473,0.643-0.86c0-0.437-0.158-0.751-0.473-0.945c-0.315-0.194-0.797-0.363-1.443-0.509
				c-1.163-0.259-2.101-0.529-2.812-0.813c-0.712-0.282-1.265-0.594-1.661-0.934c-0.396-0.339-0.662-0.711-0.8-1.114
				c-0.138-0.404-0.206-0.856-0.206-1.358c0-0.452,0.093-0.88,0.279-1.284c0.186-0.404,0.48-0.76,0.885-1.067
				c0.403-0.307,0.929-0.553,1.575-0.739c0.646-0.186,1.438-0.278,2.376-0.278c1.713,0,2.966,0.348,3.758,1.042
				c0.792,0.695,1.228,1.657,1.309,2.885H601.706z"/>
			<path fill="#898989" d="M605.925,341.207v-2.934h3.151v2.934H605.925z M605.925,354.564v-11.927h3.151v11.927H605.925z"/>
			<path fill="#898989" d="M618.724,352.965c-0.227,0.533-0.635,0.949-1.225,1.248s-1.272,0.448-2.048,0.448
				c-0.986,0-1.814-0.173-2.485-0.521s-1.212-0.804-1.624-1.37c-0.412-0.565-0.711-1.22-0.896-1.964
				c-0.187-0.743-0.279-1.503-0.279-2.278c0-0.922,0.138-1.766,0.412-2.533s0.646-1.422,1.115-1.964
				c0.469-0.541,1.019-0.961,1.648-1.261c0.631-0.299,1.31-0.448,2.036-0.448c1.487,0,2.603,0.598,3.346,1.794v-1.479h3.151v12.048
				c0,0.905-0.153,1.701-0.46,2.388c-0.308,0.688-0.728,1.261-1.261,1.722c-0.533,0.46-1.164,0.812-1.892,1.055
				c-0.727,0.242-1.503,0.363-2.327,0.363s-1.592-0.117-2.303-0.352s-1.321-0.565-1.83-0.994c-0.509-0.428-0.909-0.949-1.2-1.563
				s-0.437-1.309-0.437-2.085h2.934c0,0.728,0.238,1.289,0.715,1.686c0.477,0.396,1.111,0.594,1.903,0.594
				c0.84,0,1.552-0.23,2.133-0.691c0.582-0.46,0.873-1.087,0.873-1.879V352.965z M616.13,352.188c0.775,0,1.418-0.295,1.927-0.885
				c0.51-0.59,0.764-1.394,0.764-2.412c0-2.554-0.896-3.83-2.69-3.83s-2.691,1.212-2.691,3.637c0,1.066,0.255,1.915,0.764,2.545
				C614.712,351.874,615.354,352.188,616.13,352.188z"/>
			<path fill="#898989" d="M630.772,354.564v-7.225c0-0.921-0.153-1.543-0.461-1.866c-0.307-0.323-0.832-0.485-1.575-0.485
				c-1.633,0-2.448,0.914-2.448,2.74v6.836h-3.152v-11.927h3.007v1.745c0.371-0.679,0.864-1.191,1.479-1.539
				s1.406-0.521,2.376-0.521c0.565,0,1.091,0.085,1.575,0.254c0.485,0.17,0.901,0.425,1.249,0.764
				c0.347,0.34,0.622,0.756,0.824,1.249c0.201,0.493,0.303,1.063,0.303,1.709v8.267H630.772z"/>
			<path fill="#898989" d="M638.093,349.425c0.049,0.905,0.312,1.625,0.788,2.158s1.104,0.8,1.879,0.8
				c0.518,0,0.974-0.117,1.37-0.352c0.396-0.234,0.65-0.562,0.764-0.981h3.248c-0.372,1.228-1.019,2.174-1.939,2.836
				c-0.921,0.663-2.021,0.994-3.297,0.994c-3.976,0-5.964-2.166-5.964-6.497c0-0.921,0.13-1.754,0.389-2.497
				c0.258-0.743,0.634-1.382,1.127-1.915c0.492-0.533,1.095-0.941,1.806-1.225c0.711-0.282,1.527-0.424,2.448-0.424
				c1.843,0,3.237,0.59,4.183,1.77s1.418,2.958,1.418,5.333H638.093z M643.063,347.438c-0.016-0.437-0.093-0.82-0.229-1.151
				c-0.138-0.331-0.319-0.606-0.546-0.824c-0.227-0.219-0.484-0.38-0.775-0.485c-0.291-0.104-0.591-0.157-0.897-0.157
				c-0.63,0-1.176,0.23-1.636,0.69c-0.461,0.461-0.724,1.104-0.788,1.928H643.063z"/>
			<path fill="#898989" d="M647.28,354.564v-11.927h2.958v1.43c0.258-0.403,0.529-0.719,0.813-0.945
				c0.282-0.227,0.573-0.4,0.872-0.521s0.603-0.197,0.909-0.23c0.307-0.031,0.622-0.048,0.945-0.048h0.412v3.224
				c-0.291-0.048-0.581-0.072-0.872-0.072c-1.924,0-2.885,0.962-2.885,2.885v6.206H647.28z"/>
		</g>
	</g>
	<g>
		<g id="woman_1_">
			<g>
				<g>
					<circle fill="#F68CB2" cx="134.875" cy="160.894" r="104.876"/>
				</g>
				<g id="woman_2_">
					<g id="woman_3_">
						<g>
							<polygon fill="#F2AE75" points="144.675,160.795 144.675,148.293 125.075,148.293 125.075,160.795 120.174,161.176 
								125.075,192.773 144.675,192.775 149.577,161.176 							"/>
							<polygon fill="#F6CCB8" points="125.075,148.377 125.075,152.92 144.675,160.795 144.675,148.377 							"/>
						</g>
						<g>
							<path fill="#43414D" d="M193.001,209.17c-5.632-12.93-19.826-37.859-24.129-41.988c-7.01-6.725-15.162-6.488-22.551-7.053
								c0,0-0.016,0.117-0.04,0.316l-11.407,31.201l-11.404-31.201c-0.025-0.199-0.04-0.316-0.04-0.316
								c-7.389,0.564-15.539,0.328-22.551,7.053c-4.304,4.129-18.495,29.059-24.132,41.988c-2.304,5.289-1.901,11.359,1.072,16.303
								l14.436,30.043h8.018h31.334h0.156l3.111-11.76l3.113,11.76h0.156h31.335h8.018l14.435-30.043
								C194.905,220.529,195.307,214.459,193.001,209.17z"/>
							<g>
								<polygon fill="#FFFFFF" points="112.227,168.006 122.972,172.066 118.754,177.949 134.876,191.549 123.43,160.031 								
									"/>
								<polygon fill="#FFFFFF" points="157.523,168.006 146.303,160.164 134.876,191.549 150.996,177.949 146.78,172.066 								
									"/>
							</g>
						</g>
						<g>
							<path fill="#3C2415" d="M146.661,150.758c-6.752-0.055-12.228-8.442-12.228-18.855c0-10.414-14.426-58.63,14.704-57.272
								C172.505,75.718,178.384,151.014,146.661,150.758z"/>
							<g>
								<path fill="#F2AE75" d="M157.819,114.255v-10.192c0-10.826-12.531-24.501-22.45-24.501
									c-9.922,0-22.454,13.676-22.454,24.501v10.192c-2.755,0-4.988,2.194-4.988,4.901v5.096c0,2.707,2.233,4.9,4.988,4.9
									c0,10.826,12.532,24.895,22.454,24.895c9.919,0,22.45-14.069,22.45-24.895c2.756,0,4.99-2.193,4.99-4.9v-5.096
									C162.81,116.449,160.575,114.255,157.819,114.255z"/>
								<path opacity="0.8" fill="#F6CCB8" d="M135.369,135.916v18.131c9.919,0,22.45-14.069,22.45-24.895
									c2.756,0,4.99-2.193,4.99-4.9v-5.096c0-2.707-2.234-4.901-4.99-4.901v-10.192c0-10.826-12.531-24.501-22.45-24.501v39.691
									c-3.643,7.604-4.991,15.684-4.991,15.684L135.369,135.916z"/>
								<g>
									<g>
										<path fill="#F6CCB8" d="M126.372,120.981c0.074,2.136-1.597,3.928-3.733,4.003c-2.137,0.074-3.928-1.597-4.003-3.734
											c-0.076-2.134,1.596-3.927,3.733-4.002C124.503,117.174,126.297,118.845,126.372,120.981z"/>
										<circle fill="#3C2417" cx="122.504" cy="120.136" r="3.871"/>
										<circle fill="#FFFFFF" cx="123.818" cy="118.928" r="0.968"/>
										<path fill="#3C2417" d="M127.21,117.044c-0.714-1.659-2.542-2.917-4.553-3.129c-1.23-0.134-3.542,0.05-5.528,2.562
											c-0.095,0.012-0.183,0.012-0.294,0c-0.218-0.021-0.525-0.091-0.828-0.22c-0.607-0.244-1.116-0.758-1.116-0.758
											c-0.034-0.033-0.092-0.044-0.138-0.024c-0.061,0.03-0.084,0.103-0.055,0.162c0,0,0.076,0.169,0.223,0.411
											c0.143,0.244,0.369,0.559,0.656,0.832c0.285,0.278,0.627,0.513,0.914,0.655c0.143,0.074,0.27,0.124,0.367,0.157
											c0.093,0.033,0.189,0.051,0.174,0.051c0.266,0.025,0.511-0.118,0.625-0.341c1.303-1.816,3.04-2.712,4.898-2.51
											c1.641,0.172,3.184,1.221,3.756,2.542c0.107,0.25,0.396,0.364,0.645,0.255
											C127.202,117.581,127.317,117.294,127.21,117.044z"/>
									</g>
									<g>
										<path fill="#F6CCB8" d="M150.873,120.981c0.075,2.136-1.597,3.928-3.733,4.003c-2.135,0.074-3.928-1.597-4.001-3.734
											c-0.077-2.134,1.595-3.927,3.731-4.002C149.007,117.174,150.798,118.845,150.873,120.981z"/>
										<path fill="#3C2417" d="M150.873,120.001c0.075,2.137-1.597,3.929-3.733,4.003c-2.135,0.075-3.928-1.596-4.001-3.733
											c-0.077-2.136,1.595-3.928,3.731-4.003C149.007,116.194,150.798,117.866,150.873,120.001z"/>
										<circle fill="#FFFFFF" cx="148.319" cy="118.928" r="0.967"/>
										<path fill="#3C2417" d="M142.298,117.044c0.715-1.659,2.543-2.917,4.553-3.129c1.23-0.134,3.543,0.05,5.527,2.562
											c0.097,0.012,0.184,0.012,0.296,0c0.221-0.021,0.527-0.091,0.824-0.22c0.612-0.244,1.119-0.758,1.119-0.758
											c0.036-0.033,0.093-0.044,0.139-0.024c0.062,0.03,0.085,0.103,0.055,0.162c0,0-0.075,0.169-0.222,0.411
											c-0.144,0.244-0.369,0.559-0.658,0.832c-0.285,0.278-0.626,0.513-0.914,0.655c-0.141,0.074-0.271,0.124-0.367,0.157
											c-0.092,0.033-0.189,0.051-0.17,0.051c-0.269,0.025-0.512-0.118-0.629-0.341c-1.302-1.816-3.041-2.712-4.898-2.51
											c-1.641,0.172-3.184,1.221-3.753,2.542c-0.11,0.25-0.399,0.364-0.646,0.255
											C142.307,117.581,142.19,117.294,142.298,117.044z"/>
									</g>
								</g>
							</g>
							<g>
								<path fill="#F05D44" d="M142.716,139.17c0,3.847-3.512,6.969-7.842,6.969c-4.328,0-7.839-3.122-7.839-6.969H142.716z"/>
								<path fill="#FFFFFF" d="M140.155,141.78h-10.734c-0.642,0-1.165-0.521-1.165-1.165v-1.446h13.067v1.446
									C141.323,141.259,140.802,141.78,140.155,141.78z"/>
							</g>
							<path fill="#32303A" d="M157.695,112.024c-1.972-1.338-5.574-1.345-8.835-1.33c-5.488,0-9.164,1.077-10.938,3.194
								c-0.613-0.35-1.514-0.452-2.526-0.452c-1.017,0-1.913,0.102-2.526,0.452c-1.773-2.118-5.451-3.194-10.938-3.194
								c-3.262-0.006-6.863-0.005-8.834,1.33h-3.445v3.724l1.49,0.83c0.031,5.81,2.867,12.543,10.789,12.543
								c6.514,0,10.551-3.535,11.994-10.505c0.105-0.505,0.146-0.994,0.137-1.467c0.101-0.387,0.606-0.772,1.333-0.772
								s1.232,0.385,1.331,0.772c-0.008,0.473,0.033,0.962,0.141,1.467c1.441,6.97,5.477,10.505,11.992,10.505
								c7.922,0,10.758-6.734,10.788-12.543l1.491-0.83v-3.724H157.695z M132.198,118.26c-1.267,6.121-4.626,9.097-10.266,9.097
								c-8.594,0-9.028-9.062-9.028-10.88c0-1.275,0.288-2.184,0.886-2.779c1.146-1.144,5.326-1.238,8.143-1.238
								c6.206,0,8.66,1.413,9.625,2.597C132.247,115.906,132.464,116.983,132.198,118.26z M148.86,127.357
								c-5.64,0-9-2.977-10.267-9.097c-0.265-1.277-0.048-2.354,0.64-3.203c0.967-1.185,3.417-2.597,9.627-2.597
								c3.189-0.007,6.877-0.023,8.145,1.238c0.593,0.595,0.883,1.503,0.883,2.779C157.888,118.295,157.454,127.357,148.86,127.357z
								"/>
							<path fill="#3C2415" d="M111.899,151.014c-7.082-23.633-12.031-38.299-8.164-54.246
								c7.516-30.974,45.335-32.811,49.168-13.372c0.814,4.136,10.701,27.16,4.945,29.796c0,0-8.131-9.682-12.674-18.749
								C111.899,94.338,123.034,143.67,111.899,151.014z"/>
						</g>
					</g>
					<path id="desk_2_" fill="#686671" d="M196.409,257.076H73.343c-4.872,0-8.821,3.947-8.821,8.818
						c0,4.873,3.949,8.822,8.821,8.822h123.066c4.871,0,8.82-3.949,8.82-8.822C205.229,261.023,201.28,257.076,196.409,257.076z"/>
					<g id="computer_2_">
						<path fill="#ADADAE" d="M181.683,257.439H88.068c-1.212,0-2.195-0.982-2.195-2.193c0-1.213,0.983-2.195,2.195-2.195h93.614
							c1.213,0,2.194,0.982,2.194,2.195C183.877,256.457,182.896,257.439,181.683,257.439z"/>
						<path fill="#BDDFDF" d="M178.046,253.209H91.705c-3.222,0-5.832-2.613-5.832-5.836v-59.48c0-3.223,2.61-5.834,5.832-5.834
							h86.341c3.221,0,5.831,2.611,5.831,5.834v59.48C183.877,250.596,181.267,253.209,178.046,253.209z"/>
						<path opacity="0.5" fill="#FFFFFF" d="M142.89,215.377c0,4.424-3.588,8.012-8.014,8.012c-4.428,0-8.013-3.588-8.013-8.012
							c0-4.428,3.585-8.016,8.013-8.016C139.302,207.361,142.89,210.949,142.89,215.377z"/>
						<path opacity="0.2" fill="#FFFFFF" d="M161.591,182.059H89.955c-2.254,0-4.085,1.828-4.085,4.082v62.984
							c0,2.254,1.831,4.084,4.085,4.084h14.121C106.966,219.299,130.334,191.326,161.591,182.059z"/>
					</g>
				</g>
			</g>
		</g>
		<g>
			<path fill="#EDEDED" d="M65.9,317.22c0.019-0.185,0.074-0.526,0.167-1.024c0.092-0.499,0.202-1.071,0.332-1.718
				c0.129-0.646,0.268-1.33,0.416-2.051c0.147-0.72,0.295-1.413,0.443-2.078l1.385-6.233h5.763l1.745,7.646
				c0.111,0.443,0.208,0.915,0.291,1.413c0.083,0.499,0.157,0.988,0.222,1.469s0.125,0.941,0.181,1.385
				c0.055,0.443,0.101,0.841,0.139,1.191h0.138c0.019-0.313,0.061-0.711,0.125-1.191c0.064-0.479,0.139-0.974,0.222-1.481
				s0.166-0.998,0.249-1.469s0.162-0.854,0.235-1.149l0.942-4.212h-1.523v-3.602h7.924v3.602h-1.524l-4.128,15.765h-6.566
				l-1.662-6.594c-0.056-0.24-0.12-0.513-0.194-0.817c-0.073-0.305-0.138-0.614-0.193-0.928c-0.056-0.314-0.111-0.619-0.166-0.915
				c-0.056-0.295-0.103-0.554-0.139-0.775H70.61c-0.037,0.203-0.078,0.457-0.124,0.762c-0.047,0.305-0.103,0.619-0.167,0.942
				s-0.129,0.633-0.193,0.928c-0.065,0.296-0.125,0.545-0.181,0.748l-1.689,6.649h-6.428l-3.657-15.765h-1.552v-3.602h9.144v3.602
				h-1.607l0.721,4.045c0.073,0.333,0.156,0.767,0.249,1.303c0.092,0.536,0.18,1.076,0.264,1.62
				c0.083,0.546,0.156,1.053,0.221,1.524c0.065,0.471,0.115,0.808,0.153,1.011H65.9z"/>
			<path fill="#EDEDED" d="M91.39,323.842c-0.997,0-1.962-0.152-2.895-0.457c-0.934-0.305-1.76-0.762-2.479-1.372
				c-0.721-0.609-1.294-1.375-1.718-2.299c-0.426-0.924-0.638-1.995-0.638-3.214c0-1.164,0.217-2.193,0.651-3.09
				c0.434-0.896,1.006-1.648,1.718-2.258c0.711-0.609,1.523-1.071,2.438-1.385c0.915-0.314,1.843-0.472,2.785-0.472
				c1.089,0,2.105,0.171,3.047,0.513c0.942,0.342,1.76,0.831,2.452,1.469c0.692,0.637,1.233,1.413,1.621,2.327
				s0.582,1.953,0.582,3.117c0,1.146-0.199,2.156-0.596,3.033c-0.397,0.878-0.938,1.621-1.621,2.23
				c-0.684,0.609-1.482,1.071-2.396,1.386C93.427,323.685,92.442,323.842,91.39,323.842z M91.39,320.295
				c0.296,0,0.559-0.092,0.79-0.276c0.23-0.185,0.43-0.443,0.596-0.776c0.166-0.332,0.291-0.725,0.374-1.177
				c0.083-0.453,0.125-0.938,0.125-1.455c0-0.517-0.047-1.002-0.139-1.454c-0.093-0.453-0.222-0.846-0.388-1.178
				c-0.167-0.332-0.374-0.596-0.624-0.79c-0.249-0.193-0.54-0.29-0.872-0.29c-0.277,0-0.531,0.092-0.763,0.276
				c-0.23,0.186-0.429,0.443-0.596,0.776c-0.166,0.332-0.3,0.72-0.401,1.163s-0.152,0.914-0.152,1.413
				c0,1.146,0.194,2.06,0.582,2.743S90.799,320.295,91.39,320.295z"/>
			<path fill="#EDEDED" d="M107.791,323.481H99.95v-3.63h1.22v-6.621h-1.191v-3.602h5.208l0.831,1.773
				c0.185-0.333,0.379-0.646,0.582-0.942c0.203-0.295,0.462-0.559,0.776-0.79c0.313-0.23,0.701-0.41,1.163-0.54
				c0.462-0.129,1.053-0.193,1.773-0.193v4.986c-1.257,0-2.222,0.208-2.896,0.624c-0.675,0.415-1.011,1.232-1.011,2.451v2.854h1.385
				V323.481z"/>
			<path fill="#EDEDED" d="M120.923,306.304h-1.274v-3.602h6.898v17.178h1.33v3.602h-6.482l-0.472-1.025
				c-0.093,0.093-0.235,0.208-0.429,0.347c-0.194,0.139-0.439,0.277-0.734,0.415c-0.296,0.139-0.638,0.26-1.025,0.36
				c-0.388,0.102-0.822,0.152-1.302,0.152c-0.979,0-1.866-0.198-2.66-0.596c-0.794-0.396-1.469-0.932-2.022-1.606
				c-0.554-0.674-0.983-1.455-1.288-2.341c-0.305-0.887-0.457-1.811-0.457-2.771c0-1.071,0.175-2.046,0.526-2.924
				c0.351-0.877,0.821-1.62,1.413-2.229c0.591-0.609,1.274-1.081,2.05-1.413c0.775-0.333,1.588-0.499,2.438-0.499
				c0.979,0,1.74,0.135,2.285,0.401c0.545,0.269,0.946,0.485,1.205,0.651V306.304z M116.961,316.417c0,0.425,0.046,0.84,0.139,1.246
				s0.227,0.767,0.402,1.081c0.175,0.313,0.383,0.572,0.623,0.775c0.239,0.203,0.517,0.305,0.831,0.305
				c0.517,0,0.974-0.286,1.371-0.858s0.596-1.358,0.596-2.355c0-0.517-0.046-0.997-0.139-1.44c-0.092-0.443-0.226-0.831-0.401-1.164
				c-0.176-0.332-0.388-0.591-0.637-0.775c-0.25-0.185-0.522-0.277-0.817-0.277c-0.592,0-1.067,0.314-1.427,0.942
				C117.142,314.523,116.961,315.363,116.961,316.417z"/>
			<path fill="#EDEDED" d="M128.708,323.481v-4.987h3.712c0,0.37,0.115,0.675,0.347,0.915c0.23,0.24,0.503,0.429,0.817,0.567
				c0.313,0.139,0.637,0.235,0.97,0.291c0.332,0.056,0.6,0.083,0.803,0.083c0.277,0,0.55-0.06,0.817-0.18s0.402-0.374,0.402-0.762
				c0-0.259-0.189-0.467-0.568-0.624c-0.379-0.156-0.858-0.309-1.44-0.457c-0.582-0.147-1.205-0.323-1.87-0.526
				s-1.288-0.484-1.87-0.845s-1.063-0.831-1.44-1.413c-0.379-0.582-0.568-1.325-0.568-2.23c0-0.701,0.161-1.307,0.485-1.814
				c0.322-0.508,0.729-0.924,1.219-1.247c0.489-0.323,1.016-0.563,1.579-0.72c0.563-0.157,1.095-0.236,1.593-0.236
				c0.942,0,1.792,0.213,2.549,0.638c0.758,0.425,1.284,0.933,1.579,1.523l0.222-1.828h3.408v4.986h-3.602
				c0-0.295-0.083-0.567-0.25-0.816c-0.166-0.25-0.383-0.472-0.65-0.665c-0.269-0.194-0.568-0.347-0.9-0.457
				c-0.333-0.111-0.675-0.167-1.025-0.167c-0.296,0-0.55,0.079-0.762,0.235c-0.213,0.157-0.318,0.412-0.318,0.763
				c0,0.313,0.193,0.563,0.581,0.748c0.389,0.185,0.873,0.364,1.455,0.54s1.214,0.369,1.897,0.582
				c0.684,0.212,1.316,0.494,1.898,0.845c0.581,0.351,1.066,0.799,1.454,1.344s0.582,1.242,0.582,2.092
				c0,0.646-0.144,1.229-0.43,1.745c-0.286,0.518-0.665,0.956-1.136,1.316s-1.021,0.633-1.648,0.817s-1.274,0.276-1.939,0.276
				c-0.997,0-1.87-0.203-2.618-0.609s-1.288-0.877-1.621-1.413l-0.249,1.69H128.708z"/>
			<path fill="#EDEDED" d="M150.234,319.242c0.019-0.276,0.051-0.646,0.097-1.107s0.111-0.975,0.194-1.538s0.194-1.173,0.333-1.828
				c0.138-0.656,0.309-1.335,0.512-2.037l0.887-3.103h5.126l1.053,3.602c0.166,0.536,0.313,1.108,0.443,1.718
				c0.129,0.609,0.249,1.191,0.36,1.745c0.11,0.555,0.198,1.058,0.263,1.51c0.064,0.453,0.106,0.8,0.125,1.039h0.055
				c0.019-0.222,0.051-0.503,0.098-0.845c0.046-0.342,0.097-0.716,0.152-1.122s0.124-0.817,0.208-1.232
				c0.083-0.416,0.18-0.809,0.29-1.178l0.472-1.635h-1.136v-3.602h6.76v3.602h-1.136l-3.242,10.251h-5.846l-1.911-6.262
				l-1.995,6.262h-5.707l-3.131-10.251h-1.191v-3.602h7.453v3.602h-0.942l0.609,2.022c0.093,0.332,0.181,0.688,0.264,1.066
				c0.083,0.379,0.152,0.753,0.207,1.122c0.056,0.37,0.102,0.712,0.139,1.025c0.037,0.314,0.064,0.572,0.083,0.775H150.234z"/>
			<path fill="#EDEDED" d="M174.56,323.842c-0.997,0-1.962-0.152-2.895-0.457c-0.934-0.305-1.76-0.762-2.479-1.372
				c-0.721-0.609-1.294-1.375-1.718-2.299c-0.426-0.924-0.638-1.995-0.638-3.214c0-1.164,0.217-2.193,0.651-3.09
				c0.434-0.896,1.006-1.648,1.718-2.258c0.711-0.609,1.523-1.071,2.438-1.385c0.915-0.314,1.843-0.472,2.785-0.472
				c1.089,0,2.105,0.171,3.047,0.513c0.942,0.342,1.76,0.831,2.452,1.469c0.692,0.637,1.233,1.413,1.621,2.327
				s0.582,1.953,0.582,3.117c0,1.146-0.199,2.156-0.596,3.033c-0.397,0.878-0.938,1.621-1.621,2.23
				c-0.684,0.609-1.482,1.071-2.396,1.386C176.597,323.685,175.612,323.842,174.56,323.842z M174.56,320.295
				c0.296,0,0.559-0.092,0.79-0.276c0.23-0.185,0.43-0.443,0.596-0.776c0.166-0.332,0.291-0.725,0.374-1.177
				c0.083-0.453,0.125-0.938,0.125-1.455c0-0.517-0.047-1.002-0.139-1.454c-0.093-0.453-0.222-0.846-0.388-1.178
				c-0.167-0.332-0.374-0.596-0.624-0.79c-0.249-0.193-0.54-0.29-0.872-0.29c-0.277,0-0.531,0.092-0.763,0.276
				c-0.23,0.186-0.429,0.443-0.596,0.776c-0.166,0.332-0.3,0.72-0.401,1.163s-0.152,0.914-0.152,1.413
				c0,1.146,0.194,2.06,0.582,2.743S173.969,320.295,174.56,320.295z"/>
			<path fill="#EDEDED" d="M190.962,323.481h-7.841v-3.63h1.22v-6.621h-1.191v-3.602h5.208l0.831,1.773
				c0.185-0.333,0.379-0.646,0.582-0.942c0.203-0.295,0.462-0.559,0.776-0.79c0.313-0.23,0.701-0.41,1.163-0.54
				c0.462-0.129,1.053-0.193,1.773-0.193v4.986c-1.257,0-2.222,0.208-2.896,0.624c-0.675,0.415-1.011,1.232-1.011,2.451v2.854h1.385
				V323.481z"/>
			<path fill="#EDEDED" d="M194.313,309.629h1.496v-2.549l5.098-1.635v4.184h2.632v3.602h-2.632v4.932
				c0,0.129-0.005,0.259-0.014,0.388c-0.01,0.13-0.015,0.268-0.015,0.416c0,0.369,0.051,0.697,0.152,0.983s0.355,0.43,0.763,0.43
				c0.184,0,0.457-0.051,0.816-0.153c0.36-0.101,0.67-0.207,0.929-0.318v3.547c-0.203,0.092-0.462,0.17-0.775,0.235
				c-0.314,0.064-0.638,0.115-0.97,0.152c-0.333,0.036-0.643,0.069-0.929,0.097s-0.513,0.042-0.679,0.042
				c-1.034,0-1.843-0.139-2.424-0.416c-0.582-0.277-1.012-0.665-1.289-1.163c-0.276-0.499-0.452-1.108-0.526-1.829
				c-0.073-0.721-0.12-1.523-0.138-2.41v-4.932h-1.496V309.629z"/>
			<path fill="#EDEDED" d="M213.348,323.481h-8.7v-3.63h1.164v-13.548h-1.164v-3.602h6.705v8.645
				c0.073-0.129,0.249-0.314,0.526-0.555c0.277-0.239,0.614-0.484,1.011-0.733c0.397-0.25,0.841-0.467,1.33-0.651
				s0.983-0.277,1.482-0.277c1.071,0,1.926,0.181,2.563,0.54c0.638,0.36,1.127,0.831,1.469,1.413s0.563,1.238,0.665,1.968
				s0.152,1.454,0.152,2.175v4.626h1.302v3.63h-7.12v-7.536c0-0.239-0.01-0.508-0.027-0.803c-0.019-0.296-0.079-0.573-0.181-0.832
				c-0.102-0.258-0.263-0.479-0.484-0.664s-0.536-0.277-0.942-0.277c-0.351,0-0.642,0.078-0.872,0.235
				c-0.231,0.157-0.412,0.36-0.541,0.609s-0.217,0.526-0.263,0.831c-0.047,0.305-0.069,0.605-0.069,0.9v3.906h1.995V323.481z"/>
		</g>
		<g>
			<path fill="#898989" d="M77.215,348.036c-0.178,0.921-0.461,1.754-0.849,2.497s-0.877,1.382-1.467,1.915
				s-1.272,0.945-2.048,1.236c-0.776,0.291-1.633,0.437-2.57,0.437c-1.051,0-2.032-0.178-2.945-0.533s-1.701-0.889-2.363-1.601
				c-0.663-0.711-1.185-1.588-1.563-2.63c-0.38-1.042-0.57-2.258-0.57-3.648c0-1.357,0.174-2.582,0.521-3.673
				s0.845-2.012,1.491-2.764c0.646-0.751,1.434-1.329,2.363-1.733c0.93-0.403,1.968-0.605,3.115-0.605
				c1.002,0,1.911,0.149,2.728,0.448c0.815,0.299,1.519,0.711,2.108,1.236s1.059,1.144,1.406,1.854s0.562,1.471,0.643,2.278h-3.37
				c-0.226-0.921-0.662-1.636-1.309-2.145c-0.646-0.51-1.374-0.764-2.182-0.764c-1.406,0-2.44,0.505-3.104,1.515
				c-0.662,1.011-0.993,2.396-0.993,4.157c0,1.794,0.327,3.188,0.981,4.183c0.654,0.993,1.637,1.49,2.945,1.49
				c1.002,0,1.806-0.271,2.412-0.812c0.606-0.542,1.022-1.321,1.248-2.34H77.215z"/>
			<path fill="#898989" d="M83.712,353.879c-0.97,0-1.835-0.154-2.594-0.461c-0.76-0.307-1.402-0.735-1.928-1.285
				c-0.525-0.549-0.925-1.212-1.2-1.987c-0.274-0.776-0.412-1.624-0.412-2.546c0-0.937,0.142-1.794,0.425-2.569
				c0.282-0.775,0.69-1.438,1.224-1.988c0.534-0.549,1.176-0.973,1.928-1.272c0.751-0.299,1.604-0.448,2.558-0.448
				c0.937,0,1.777,0.149,2.521,0.448c0.743,0.3,1.377,0.72,1.902,1.261c0.525,0.542,0.93,1.2,1.212,1.976
				c0.283,0.775,0.425,1.641,0.425,2.594c0,0.954-0.142,1.814-0.425,2.582c-0.282,0.768-0.687,1.427-1.212,1.976
				c-0.525,0.55-1.163,0.974-1.915,1.272C85.47,353.729,84.633,353.879,83.712,353.879z M83.712,351.236
				c1.923,0,2.885-1.212,2.885-3.637c0-2.407-0.962-3.612-2.885-3.612c-1.924,0-2.885,1.205-2.885,3.612
				C80.827,350.024,81.788,351.236,83.712,351.236z"/>
			<path fill="#898989" d="M98.427,353.563v-7.225c0-0.921-0.153-1.543-0.461-1.866c-0.307-0.323-0.832-0.485-1.575-0.485
				c-1.633,0-2.448,0.914-2.448,2.74v6.836H90.79v-11.927h3.007v1.745c0.371-0.679,0.864-1.191,1.479-1.539s1.406-0.521,2.376-0.521
				c0.565,0,1.091,0.085,1.575,0.254c0.485,0.17,0.901,0.425,1.249,0.764c0.347,0.34,0.622,0.756,0.824,1.249
				c0.201,0.493,0.303,1.063,0.303,1.709v8.267H98.427z"/>
			<path fill="#898989" d="M109.626,345.709h2.934v3.394c0,0.631-0.093,1.233-0.278,1.807c-0.187,0.573-0.478,1.083-0.873,1.527
				c-0.396,0.444-0.897,0.796-1.503,1.055c-0.606,0.258-1.33,0.388-2.17,0.388c-0.873,0-1.616-0.13-2.23-0.388
				c-0.614-0.259-1.119-0.606-1.515-1.043c-0.396-0.437-0.684-0.945-0.861-1.527s-0.267-1.195-0.267-1.842v-10.667h3.104v3.225
				h6.594v2.229h-6.594v4.897c0,0.76,0.142,1.346,0.424,1.758c0.283,0.412,0.748,0.618,1.395,0.618c0.63,0,1.095-0.202,1.394-0.606
				c0.299-0.403,0.448-0.978,0.448-1.722V345.709z"/>
			<path fill="#898989" d="M116.583,348.424c0.049,0.905,0.312,1.625,0.788,2.158s1.104,0.8,1.879,0.8
				c0.518,0,0.974-0.117,1.37-0.352c0.396-0.234,0.65-0.562,0.764-0.981h3.248c-0.372,1.228-1.019,2.174-1.939,2.836
				c-0.921,0.663-2.021,0.994-3.297,0.994c-3.976,0-5.964-2.166-5.964-6.497c0-0.921,0.13-1.754,0.389-2.497
				c0.258-0.743,0.634-1.382,1.127-1.915c0.492-0.533,1.095-0.941,1.806-1.225c0.711-0.282,1.527-0.424,2.448-0.424
				c1.843,0,3.237,0.59,4.183,1.77s1.418,2.958,1.418,5.333H116.583z M121.553,346.437c-0.016-0.437-0.093-0.82-0.229-1.151
				c-0.138-0.331-0.319-0.606-0.546-0.824c-0.227-0.219-0.484-0.38-0.775-0.485c-0.291-0.104-0.591-0.157-0.897-0.157
				c-0.63,0-1.176,0.23-1.636,0.69c-0.461,0.461-0.724,1.104-0.788,1.928H121.553z"/>
			<path fill="#898989" d="M133.407,353.563v-7.225c0-0.921-0.153-1.543-0.461-1.866c-0.307-0.323-0.832-0.485-1.575-0.485
				c-1.633,0-2.448,0.914-2.448,2.74v6.836h-3.152v-11.927h3.007v1.745c0.371-0.679,0.864-1.191,1.479-1.539
				s1.406-0.521,2.376-0.521c0.565,0,1.091,0.085,1.575,0.254c0.485,0.17,0.901,0.425,1.249,0.764
				c0.347,0.34,0.622,0.756,0.824,1.249c0.201,0.493,0.303,1.063,0.303,1.709v8.267H133.407z"/>
			<path fill="#898989" d="M144.606,345.709h2.934v3.394c0,0.631-0.093,1.233-0.278,1.807c-0.187,0.573-0.478,1.083-0.873,1.527
				c-0.396,0.444-0.897,0.796-1.503,1.055c-0.606,0.258-1.33,0.388-2.17,0.388c-0.873,0-1.616-0.13-2.23-0.388
				c-0.614-0.259-1.119-0.606-1.515-1.043c-0.396-0.437-0.684-0.945-0.861-1.527s-0.267-1.195-0.267-1.842v-10.667h3.104v3.225
				h6.594v2.229h-6.594v4.897c0,0.76,0.142,1.346,0.424,1.758c0.283,0.412,0.748,0.618,1.395,0.618c0.63,0,1.095-0.202,1.394-0.606
				c0.299-0.403,0.448-0.978,0.448-1.722V345.709z"/>
			<path fill="#898989" d="M166.86,353.563l-2.497-10.473l-2.545,10.473h-3.152l-4.558-16.097h3.588l2.643,10.424l2.23-10.424h3.539
				l2.449,10.424l2.618-10.424h3.442l-4.51,16.097H166.86z"/>
			<path fill="#898989" d="M175.32,353.563v-11.927h2.958v1.43c0.258-0.403,0.529-0.719,0.813-0.945
				c0.282-0.227,0.573-0.4,0.872-0.521s0.603-0.197,0.909-0.23c0.307-0.031,0.622-0.048,0.945-0.048h0.412v3.224
				c-0.291-0.048-0.581-0.072-0.872-0.072c-1.924,0-2.885,0.962-2.885,2.885v6.206H175.32z"/>
			<path fill="#898989" d="M183.03,340.206v-2.934h3.151v2.934H183.03z M183.03,353.563v-11.927h3.151v11.927H183.03z"/>
			<path fill="#898989" d="M194.277,345.709h2.934v3.394c0,0.631-0.093,1.233-0.278,1.807c-0.187,0.573-0.478,1.083-0.873,1.527
				c-0.396,0.444-0.897,0.796-1.503,1.055c-0.606,0.258-1.33,0.388-2.17,0.388c-0.873,0-1.616-0.13-2.23-0.388
				c-0.614-0.259-1.119-0.606-1.515-1.043c-0.396-0.437-0.684-0.945-0.861-1.527s-0.267-1.195-0.267-1.842v-10.667h3.104v3.225
				h6.594v2.229h-6.594v4.897c0,0.76,0.142,1.346,0.424,1.758c0.283,0.412,0.748,0.618,1.395,0.618c0.63,0,1.095-0.202,1.394-0.606
				c0.299-0.403,0.448-0.978,0.448-1.722V345.709z"/>
			<path fill="#898989" d="M201.234,348.424c0.049,0.905,0.312,1.625,0.788,2.158s1.104,0.8,1.879,0.8
				c0.518,0,0.974-0.117,1.37-0.352c0.396-0.234,0.65-0.562,0.764-0.981h3.248c-0.372,1.228-1.019,2.174-1.939,2.836
				c-0.921,0.663-2.021,0.994-3.297,0.994c-3.976,0-5.964-2.166-5.964-6.497c0-0.921,0.13-1.754,0.389-2.497
				c0.258-0.743,0.634-1.382,1.127-1.915c0.492-0.533,1.095-0.941,1.806-1.225c0.711-0.282,1.527-0.424,2.448-0.424
				c1.843,0,3.237,0.59,4.183,1.77s1.418,2.958,1.418,5.333H201.234z M206.204,346.437c-0.016-0.437-0.093-0.82-0.229-1.151
				c-0.138-0.331-0.319-0.606-0.546-0.824c-0.227-0.219-0.484-0.38-0.775-0.485c-0.291-0.104-0.591-0.157-0.897-0.157
				c-0.63,0-1.176,0.23-1.636,0.69c-0.461,0.461-0.724,1.104-0.788,1.928H206.204z"/>
			<path fill="#898989" d="M210.422,353.563v-11.927h2.958v1.43c0.258-0.403,0.529-0.719,0.813-0.945
				c0.282-0.227,0.573-0.4,0.872-0.521s0.603-0.197,0.909-0.23c0.307-0.031,0.622-0.048,0.945-0.048h0.412v3.224
				c-0.291-0.048-0.581-0.072-0.872-0.072c-1.924,0-2.885,0.962-2.885,2.885v6.206H210.422z"/>
		</g>
	</g>
</g>
</svg>
