<?xml version="1.0" encoding="utf-8"?>
<!-- Generator: Adobe Illustrator 16.0.0, SVG Export Plug-In . SVG Version: 6.00 Build 0)  -->
<!DOCTYPE svg PUBLIC "-//W3C//DTD SVG 1.1//EN" "http://www.w3.org/Graphics/SVG/1.1/DTD/svg11.dtd">
<svg version="1.1" id="Layer_1" xmlns="http://www.w3.org/2000/svg" xmlns:xlink="http://www.w3.org/1999/xlink" x="0px" y="0px"
	 width="253.853px" height="260px" viewBox="0 0 253.853 260" enable-background="new 0 0 253.853 260" xml:space="preserve">
<g id="man_1_">
	<g>
		<g>
			<path fill="#FFCAAC" d="M202.299,203.653c-41.625,41.624-109.116,41.624-150.742,0C9.93,162.027,9.93,94.537,51.557,52.911
				c41.626-41.625,109.117-41.625,150.742,0C243.922,94.537,243.922,162.027,202.299,203.653z"/>
		</g>
		<g id="man_2_">
			<g id="man_3_">
				<g>
					<polygon fill="#F6CCB8" points="142.357,118.641 138.695,116.953 138.695,104.321 115.174,104.321 115.174,116.953 
						111.494,118.543 112.473,151.581 115.174,151.581 115.174,156.647 138.695,156.647 138.695,151.581 141.381,151.581 					"/>
					<polygon fill="#F6CCB8" points="115.174,104.321 115.174,114.715 138.695,116.193 138.695,104.321 					"/>
				</g>
				<g>
					<g>
						<g>
							<path fill="#FFFFFF" d="M142.689,118.721l-0.873,3.281c-1.514,4.331-5.393,11.417-14.596,11.417
								c-10.387,0-14.351-9.019-15.582-12.927l-0.471-1.771c-19.131,7.187-13.262,67.097-13.262,67.097l-0.121,49.766l29.191,0.004
								l30.756-0.004l-0.803-49.766C156.93,185.817,161.82,125.907,142.689,118.721z"/>
							<polygon fill="#F15D44" points="132.588,131.8 130.328,136.124 123.459,136.124 121.266,131.8 126.928,127.175 							"/>
							<path fill="#E6E7E8" d="M126.928,127.175l-7.232,7.615l-12.371-14.757c0.021-0.01,7.724-3.845,7.724-3.845l2.901,2.688
								L126.928,127.175z"/>
							<polygon fill="#E6E7E8" points="138.816,116.193 126.929,127.175 134.164,134.794 146.529,120.027 							"/>
							<polygon fill="#F15D44" points="130.328,137.159 133.129,227.206 126.928,234.062 120.729,227.206 123.459,137.159 							
								"/>
						</g>
						<path fill="#42404D" d="M191.283,187.95c1.801-5.498,1.773-11.424-0.082-16.904c-3.6-10.623-10.477-32.971-12.398-37.23
							c-4.313-9.399-18.199-9.049-35.545-15.015c-0.617-0.219-1.246-0.435-1.873-0.66l0,0c-1.021,5.959-14.457,63.55-14.457,63.55
							s-13.436-57.591-14.456-63.55h-0.001c-0.628,0.226-1.256,0.441-1.872,0.66c-17.349,5.966-31.233,5.615-35.546,15.015
							c-1.924,4.258-8.798,26.604-12.397,37.23c-1.858,5.479-1.884,11.408-0.083,16.906c3.979,12.146,12.15,28.65,15.678,33.893
							c3.139,4.664,8.624,6.352,12.592,5.041c-0.543,2.514-0.717,4.373-0.148,4.373c0,0,17.59,0,36.232,0l0.002-0.234l0.001,0.234
							c18.642,0,36.234,0,36.234,0c0.566,0,0.394-1.859-0.147-4.373c3.967,1.311,9.451-0.377,12.589-5.041
							C179.133,216.603,187.305,200.091,191.283,187.95z"/>
						<g>
							<g>
								<polygon fill="#4F4C4D" points="102.66,120.074 103.043,131.313 108.654,135.929 104.288,141.901 126.781,181.69 
									112.558,114.983 								"/>
							</g>
							<g>
								<polygon fill="#4F4C4D" points="151.195,120.074 150.813,131.313 145.198,135.929 149.567,141.901 127.076,181.69 
									141.299,114.983 								"/>
							</g>
						</g>
					</g>
				</g>
				<g id="man_4_">
					<g>
						<path fill="#F6CCB8" d="M152.597,70.806l0.796-10.35c0-13.534-12.937-24.502-26.464-24.502
							c-13.532,0-26.461,10.968-26.461,24.502l0.798,10.34c-0.758,0.184-1.441,0.531-2.014,1.018
							c-1.059,0.904-1.725,2.236-1.725,3.734v5.098c0,2.694,2.17,4.88,4.871,4.897c0,12.781,15.357,24.898,24.53,24.898
							c9.177,0,24.534-12.114,24.534-24.896c2.688-0.021,4.865-2.203,4.865-4.899v-5.095
							C156.328,73.249,154.736,71.335,152.597,70.806z"/>
						<path opacity="0.8" fill="#F6CCB8" d="M152.597,70.806l0.796-10.35c0-13.534-12.937-24.502-26.464-24.502
							c-0.003,0-0.003,34.793-0.003,34.793c-3.575,7.604-5.882,18.623-5.882,18.623h5.882v21.071
							c9.184-0.004,24.537-12.117,24.537-24.896c2.688-0.021,4.865-2.203,4.865-4.899v-5.095
							C156.328,73.249,154.736,71.335,152.597,70.806z"/>
						<g>
							<g>
								<circle fill="#F7CDB9" cx="115.742" cy="76.526" r="3.87"/>
								<circle fill="#3C2415" cx="115.742" cy="75.546" r="3.87"/>
								<circle fill="#FFFFFF" cx="117.055" cy="77.278" r="0.967"/>
							</g>
							<g>
								<circle fill="#F7CDB9" cx="138.284" cy="76.526" r="3.871"/>
								<circle fill="#3C2415" cx="138.284" cy="75.546" r="3.871"/>
								<circle fill="#FFFFFF" cx="139.596" cy="77.278" r="0.968"/>
							</g>
						</g>
					</g>
					<path fill="#4F3C30" d="M117.002,29.558c-26.535-8.82-21.439,41.869-18.805,50.308c0.48,1.542,2.544,3.921,2.554,3.921
						c0.806,1.506-2.125,30.318,26.212,30.318c28.338,0,25.407-28.813,26.211-30.318c0.012,0,2.072-2.379,2.553-3.921
						C158.364,71.427,166.422,14.368,117.002,29.558z M149.979,82.942c0,3.215-1.977,7.973-4.78,10.083
						c-1.206,0.908-2.819,1.058-4.203,0.463c-2.339-0.999-7.564-1.896-14.032-1.896s-11.694,0.896-14.033,1.896
						c-1.385,0.595-2.998,0.445-4.201-0.463c-2.806-2.11-4.783-6.868-4.783-10.083c0,0-3.902-14.078-0.966-24.422
						c1.452-5.12,7.729-8.004,12.896-6.713c3.747,0.939,7.639,1.252,11.088,1.26c3.449-0.008,7.339-0.32,11.092-1.26
						c5.162-1.291,11.439,1.593,12.891,6.713C153.885,68.864,149.979,82.942,149.979,82.942z"/>
					<path fill="#F6CCB8" d="M120.523,96.205h12.818c0.402,0,0.607,0.503,0.309,0.773c-0.918,0.833-2.906,2.035-6.719,2.035
						c-3.809,0-5.797-1.202-6.715-2.035C119.916,96.708,120.118,96.205,120.523,96.205z"/>
					<path fill="#43414D" d="M153.537,68.661h-5.305c-1.676-0.879-4.023-1.438-7.307-1.438c-5.461,0-9.165,1.045-11.069,3.088
						c-0.898-0.494-2.244-1.056-3.761-1.056c-1.506,0-2.838,0.554-3.736,1.042c-1.908-2.033-5.607-3.074-11.057-3.074
						c-3.285,0-5.632,0.559-7.306,1.438h-5.345v3.822l1.754,0.613c-0.18,0.718-0.252,1.443-0.252,2.145
						c0,5.764,1.824,9.1,11.148,9.1c7.875,0,10.999-2.245,12.378-8.901c0.169-0.813,0.187-1.59,0.074-2.32
						c0.435-0.276,1.152-0.519,2.341-0.519c1.217,0,1.945,0.254,2.375,0.541c-0.107,0.723-0.09,1.493,0.078,2.298
						c1.378,6.656,4.502,8.901,12.377,8.901c9.325,0,11.148-3.336,11.148-9.1c0-0.705-0.074-1.437-0.256-2.156l1.719-0.602V68.661z
						 M121.762,75.041c-1.193,5.762-3.443,7.34-10.459,7.34c-8.547,0-9.188-2.827-9.188-7.14c0-1.498,0-6.059,9.188-6.059
						c6.338,0,8.837,1.435,9.816,2.641C121.813,72.671,122.028,73.756,121.762,75.041z M140.926,82.381
						c-7.016,0-9.266-1.578-10.459-7.34c-0.266-1.285-0.051-2.37,0.643-3.218c0.98-1.206,3.477-2.641,9.816-2.641
						c9.189,0,9.189,4.561,9.189,6.059C150.115,79.554,149.473,82.381,140.926,82.381z"/>
				</g>
			</g>
			<path id="desk_3_" fill="#686671" d="M188.46,226.888H65.396c-4.873,0-8.82,3.949-8.82,8.82s3.947,8.822,8.82,8.822H188.46
				c4.872,0,8.821-3.951,8.821-8.822S193.332,226.888,188.46,226.888z"/>
			<g id="computer_3_">
				<path fill="#ADADAE" d="M173.736,226.983H80.119c-1.213,0-2.195-0.984-2.195-2.193c0-1.215,0.982-2.197,2.195-2.197h93.617
					c1.211,0,2.195,0.982,2.195,2.197C175.932,225.999,174.947,226.983,173.736,226.983z"/>
				<path fill="#E1E1E1" d="M170.098,222.753H83.76c-3.224,0-5.836-2.613-5.836-5.834v-59.482c0-3.223,2.612-5.836,5.836-5.836
					h86.338c3.221,0,5.834,2.613,5.834,5.836v59.482C175.932,220.14,173.318,222.753,170.098,222.753z"/>
				<circle opacity="0.5" fill="#FFFFFF" cx="126.928" cy="184.919" r="8.014"/>
				<path opacity="0.2" fill="#FFFFFF" d="M153.645,151.601H82.008c-2.256,0-4.084,1.828-4.084,4.086v62.98
					c0,2.258,1.828,4.086,4.084,4.086h14.121C99.019,188.841,122.388,160.872,153.645,151.601z"/>
			</g>
		</g>
	</g>
</g>
</svg>
