<?xml version="1.0" encoding="utf-8"?>
<!-- Generator: Adobe Illustrator 16.0.0, SVG Export Plug-In . SVG Version: 6.00 Build 0)  -->
<!DOCTYPE svg PUBLIC "-//W3C//DTD SVG 1.1//EN" "http://www.w3.org/Graphics/SVG/1.1/DTD/svg11.dtd">
<svg version="1.1" id="Layer_1" xmlns="http://www.w3.org/2000/svg" xmlns:xlink="http://www.w3.org/1999/xlink" x="0px" y="0px"
	 width="253.853px" height="260px" viewBox="0 0 253.853 260" enable-background="new 0 0 253.853 260" xml:space="preserve">
<g id="woman_1_">
	<g>
		<g>
			<circle fill="#F68CB2" cx="126.926" cy="121.543" r="104.876"/>
		</g>
		<g id="woman_2_">
			<g id="woman_3_">
				<g>
					<polygon fill="#F2AE75" points="136.726,121.444 136.726,108.942 117.126,108.942 117.126,121.444 112.225,121.825 
						117.126,153.423 136.726,153.425 141.628,121.825 					"/>
					<polygon fill="#F6CCB8" points="117.126,109.026 117.126,113.569 136.726,121.444 136.726,109.026 					"/>
				</g>
				<g>
					<path fill="#43414D" d="M185.052,169.819c-5.632-12.93-19.826-37.859-24.129-41.988c-7.01-6.725-15.162-6.488-22.551-7.053
						c0,0-0.016,0.117-0.04,0.316l-11.407,31.201l-11.404-31.201c-0.025-0.199-0.04-0.316-0.04-0.316
						c-7.389,0.564-15.539,0.328-22.551,7.053c-4.304,4.129-18.495,29.059-24.132,41.988c-2.304,5.289-1.901,11.359,1.072,16.303
						l14.436,30.043h8.018h31.334h0.156l3.111-11.76l3.113,11.76h0.156h31.335h8.018l14.435-30.043
						C186.956,181.179,187.357,175.108,185.052,169.819z"/>
					<g>
						<polygon fill="#FFFFFF" points="104.277,128.655 115.022,132.716 110.805,138.599 126.927,152.198 115.48,120.681 						"/>
						<polygon fill="#FFFFFF" points="149.574,128.655 138.354,120.813 126.927,152.198 143.047,138.599 138.831,132.716 						"/>
					</g>
				</g>
				<g>
					<path fill="#3C2415" d="M138.712,111.407c-6.752-0.055-12.228-8.441-12.228-18.855c0-10.413-14.426-58.629,14.704-57.271
						C164.556,36.368,170.435,111.663,138.712,111.407z"/>
					<g>
						<path fill="#F2AE75" d="M149.87,74.905V64.713c0-10.825-12.531-24.501-22.45-24.501c-9.922,0-22.454,13.676-22.454,24.501
							v10.192c-2.755,0-4.988,2.193-4.988,4.9v5.096c0,2.707,2.233,4.9,4.988,4.9c0,10.826,12.532,24.895,22.454,24.895
							c9.919,0,22.45-14.068,22.45-24.895c2.756,0,4.99-2.193,4.99-4.9v-5.096C154.86,77.099,152.626,74.905,149.87,74.905z"/>
						<path opacity="0.8" fill="#F6CCB8" d="M127.42,96.565v18.131c9.919,0,22.45-14.068,22.45-24.895c2.756,0,4.99-2.193,4.99-4.9
							v-5.096c0-2.707-2.234-4.9-4.99-4.9V64.713c0-10.825-12.531-24.501-22.45-24.501v39.69
							c-3.643,7.604-4.991,15.684-4.991,15.684L127.42,96.565z"/>
						<g>
							<g>
								<path fill="#F6CCB8" d="M118.423,81.631c0.074,2.136-1.597,3.929-3.733,4.003s-3.928-1.597-4.003-3.734
									c-0.076-2.133,1.596-3.926,3.733-4.002C116.554,77.823,118.348,79.495,118.423,81.631z"/>
								<circle fill="#3C2417" cx="114.555" cy="80.786" r="3.871"/>
								<circle fill="#FFFFFF" cx="115.869" cy="79.578" r="0.968"/>
								<path fill="#3C2417" d="M119.261,77.694c-0.714-1.66-2.542-2.917-4.553-3.13c-1.23-0.134-3.542,0.05-5.528,2.562
									c-0.095,0.012-0.183,0.012-0.294,0c-0.218-0.021-0.525-0.092-0.828-0.221c-0.607-0.243-1.116-0.758-1.116-0.758
									c-0.034-0.033-0.092-0.045-0.138-0.024c-0.061,0.03-0.084,0.103-0.055,0.162c0,0,0.076,0.169,0.223,0.411
									c0.143,0.244,0.369,0.559,0.656,0.832c0.285,0.277,0.627,0.513,0.914,0.654c0.143,0.074,0.27,0.124,0.367,0.157
									c0.093,0.032,0.189,0.051,0.174,0.051c0.266,0.025,0.511-0.118,0.625-0.341c1.303-1.816,3.04-2.713,4.898-2.51
									c1.641,0.172,3.184,1.221,3.756,2.542c0.107,0.249,0.396,0.364,0.645,0.255C119.253,78.229,119.368,77.943,119.261,77.694z"
									/>
							</g>
							<g>
								<path fill="#F6CCB8" d="M142.924,81.631c0.075,2.136-1.597,3.929-3.733,4.003c-2.135,0.074-3.928-1.597-4.001-3.734
									c-0.077-2.133,1.595-3.926,3.731-4.002C141.058,77.823,142.849,79.495,142.924,81.631z"/>
								<path fill="#3C2417" d="M142.924,80.65c0.075,2.137-1.597,3.929-3.733,4.003c-2.135,0.076-3.928-1.596-4.001-3.732
									c-0.077-2.137,1.595-3.928,3.731-4.004C141.058,76.843,142.849,78.515,142.924,80.65z"/>
								<circle fill="#FFFFFF" cx="140.37" cy="79.578" r="0.967"/>
								<path fill="#3C2417" d="M134.349,77.694c0.715-1.66,2.543-2.917,4.553-3.13c1.23-0.134,3.543,0.05,5.527,2.562
									c0.097,0.012,0.184,0.012,0.296,0c0.221-0.021,0.527-0.092,0.824-0.221c0.612-0.243,1.119-0.758,1.119-0.758
									c0.036-0.033,0.093-0.045,0.139-0.024c0.062,0.03,0.085,0.103,0.055,0.162c0,0-0.075,0.169-0.222,0.411
									c-0.144,0.244-0.369,0.559-0.658,0.832c-0.285,0.277-0.626,0.513-0.914,0.654c-0.141,0.074-0.271,0.124-0.367,0.157
									c-0.092,0.032-0.189,0.051-0.17,0.051c-0.269,0.025-0.512-0.118-0.629-0.341c-1.302-1.816-3.041-2.713-4.898-2.51
									c-1.641,0.172-3.184,1.221-3.753,2.542c-0.11,0.249-0.399,0.364-0.646,0.255C134.357,78.229,134.241,77.943,134.349,77.694z
									"/>
							</g>
						</g>
					</g>
					<g>
						<path fill="#F05D44" d="M134.767,99.819c0,3.847-3.512,6.969-7.842,6.969c-4.328,0-7.839-3.122-7.839-6.969H134.767z"/>
						<path fill="#FFFFFF" d="M132.206,102.43h-10.734c-0.642,0-1.165-0.521-1.165-1.165v-1.445h13.067v1.445
							C133.374,101.908,132.853,102.43,132.206,102.43z"/>
					</g>
					<path fill="#32303A" d="M149.746,72.674c-1.972-1.338-5.574-1.345-8.835-1.329c-5.488,0-9.164,1.076-10.938,3.193
						c-0.613-0.35-1.514-0.451-2.526-0.451c-1.017,0-1.913,0.102-2.526,0.451c-1.773-2.117-5.451-3.193-10.938-3.193
						c-3.262-0.006-6.863-0.006-8.834,1.329h-3.445v3.724l1.49,0.83c0.031,5.81,2.867,12.543,10.789,12.543
						c6.514,0,10.551-3.535,11.994-10.504c0.105-0.506,0.146-0.994,0.137-1.467c0.101-0.388,0.606-0.773,1.333-0.773
						s1.232,0.386,1.331,0.773c-0.008,0.473,0.033,0.961,0.141,1.467c1.441,6.969,5.477,10.504,11.992,10.504
						c7.922,0,10.758-6.733,10.788-12.543l1.491-0.83v-3.724H149.746z M124.249,78.909c-1.267,6.121-4.626,9.098-10.266,9.098
						c-8.594,0-9.028-9.063-9.028-10.881c0-1.275,0.288-2.184,0.886-2.779c1.146-1.144,5.326-1.237,8.143-1.237
						c6.206,0,8.66,1.413,9.625,2.597C124.298,76.556,124.515,77.632,124.249,78.909z M140.911,88.007c-5.64,0-9-2.977-10.267-9.098
						c-0.265-1.277-0.048-2.354,0.64-3.203c0.967-1.184,3.417-2.597,9.627-2.597c3.189-0.007,6.877-0.023,8.145,1.237
						c0.593,0.596,0.883,1.504,0.883,2.779C149.938,78.944,149.505,88.007,140.911,88.007z"/>
					<path fill="#3C2415" d="M103.95,111.663c-7.082-23.633-12.031-38.299-8.164-54.246c7.516-30.973,45.335-32.811,49.168-13.371
						c0.814,4.135,10.701,27.159,4.945,29.795c0,0-8.131-9.682-12.674-18.748C103.95,54.987,115.085,104.319,103.95,111.663z"/>
				</g>
			</g>
			<path id="desk_2_" fill="#686671" d="M188.46,217.726H65.394c-4.872,0-8.821,3.947-8.821,8.818c0,4.873,3.949,8.822,8.821,8.822
				H188.46c4.871,0,8.82-3.949,8.82-8.822C197.28,221.673,193.331,217.726,188.46,217.726z"/>
			<g id="computer_2_">
				<path fill="#ADADAE" d="M173.733,218.089H80.119c-1.212,0-2.195-0.982-2.195-2.193c0-1.213,0.983-2.195,2.195-2.195h93.614
					c1.213,0,2.194,0.982,2.194,2.195C175.928,217.106,174.946,218.089,173.733,218.089z"/>
				<path fill="#BDDFDF" d="M170.097,213.858H83.756c-3.222,0-5.832-2.613-5.832-5.836v-59.48c0-3.223,2.61-5.834,5.832-5.834
					h86.341c3.221,0,5.831,2.611,5.831,5.834v59.48C175.928,211.245,173.317,213.858,170.097,213.858z"/>
				<path opacity="0.5" fill="#FFFFFF" d="M134.94,176.026c0,4.424-3.588,8.012-8.014,8.012c-4.428,0-8.013-3.588-8.013-8.012
					c0-4.428,3.585-8.016,8.013-8.016C131.353,168.011,134.94,171.599,134.94,176.026z"/>
				<path opacity="0.2" fill="#FFFFFF" d="M153.642,142.708H82.006c-2.254,0-4.085,1.828-4.085,4.082v62.984
					c0,2.254,1.831,4.084,4.085,4.084h14.121C99.017,179.948,122.385,151.976,153.642,142.708z"/>
			</g>
		</g>
	</g>
</g>
</svg>
